<?xml version="1.0" encoding="utf-8"?>
<!-- Generator: Adobe Illustrator 26.3.1, SVG Export Plug-In . SVG Version: 6.00 Build 0)  -->
<svg version="1.1" id="Capa_1" xmlns="http://www.w3.org/2000/svg" xmlns:xlink="http://www.w3.org/1999/xlink" x="0px" y="0px"
	 viewBox="0 0 426 658" style="enable-background:new 0 0 426 658;" xml:space="preserve">
<style type="text/css">
	.st0{fill:#FFFFFF;}
</style>
<g>
	<path class="st0" d="M70.2,494.4c-0.1-8.9,2.1-16.5,10.9-20.5c-1.6-13.7-7.6-24.8-19.6-32.1c-5.1-3.1-10.3-6.1-15.8-9.4
		c-14,7.7-28.4,15.7-42.8,23.6c-0.1,0.1-0.5-0.4-0.9-0.7c13.5-9.7,28.9-15.8,43.1-24.3c-0.5-0.6-1-1.1-1.4-1.7c-2-2.7-4-5.3-4-8.9
		c-0.2-17.8-0.4-35.5-0.5-53.3c-0.1-21.4-0.1-42.8,0.1-64.3c0-5.1,0-10.4,0.9-15.3c1.6-8.4,7.6-13,15.7-14c6.2-0.8,12.5-0.2,19-0.2
		c-1.2-3.2-2.2-5.8-3.1-8.5c-1.7-5-1.5-9.9,0.2-14.9c1.9-5.5,1.6-6.2-3-9.9c-5.1-4.1-6.9-11.1-4.7-18.4c0.5-1.7,1.1-3.5,1.7-5.2
		c1-2.7,0.6-4.5-1.5-6.3c-3.5-3-7.8-3.1-12.1-2.8c-5.6,0.5-11.1,0.5-16.4-1.6c-7.5-2.9-12.6-8-14-16.3c-1.3-7.6-1.7-15.3,0.2-22.9
		c2.3-9.3,9-14.5,18.7-14.8c3.2-0.1,6.3-0.4,9.4-0.9c4.1-0.7,7.5-3.1,9.3-6.7c3.4-6.7,6.4-13.5,9.6-20.2c-2.7-1.8-5.2-3.2-7.4-4.9
		c-9.1-7.3-10.2-18.1-2.8-27.5c1.3-1.6,2.6-3.2,3.8-4.9c1-1.4,1.8-2.9,2.8-4.6c5.4,1.8,10.1,0.6,12.7-5.3c1.5-3.4,0.2-5.5-4.4-8.6
		c3.5-2.9,4-7.4,5.7-11.2c2.6-6.1,6.4-11.1,13.6-11.8c2.5-0.2,5.2,0.6,8.1,1c3.8-8.1,7.8-16.8,11.8-25.2c-1.9-0.6-3.8-1-5.7-1.7
		c-0.4-0.1-0.5-1.1-0.7-1.6c0.6,0.1,1.1,0,1.7,0.2c1.2,0.3,2.4,0.8,3.6,0.9c2,0.3,3.3-0.6,3.6-2.8c-1.5-0.5-3-1-4.4-1.7
		c-0.5-0.2-0.8-0.9-1.2-1.4c0.6-0.1,1.3-0.3,1.9-0.2c1.3,0.4,2.6,0.9,4.2,1.5c0.2-2.1,0.3-3.8,0.5-5.5c0.3-2.8,1.7-4.9,3.9-6.5
		c1.6-1.2,3.4-1.3,5.1-0.2c1.7,1.1,2.4,3,1.6,4.8c-1.3,3.1-3.1,6-4.8,9.2c0.8,0.5,1.9,1,2.9,1.7c0.5,0.4,0.8,1,1.2,1.5
		c-0.7,0.5-1.3,1.3-2,1.3c-1.5,0-3.1-0.4-5.4-0.7c-4.1,9.4-8.3,19.1-12.5,29c1.4,0.8,2.7,1.3,3.8,2c5.7,3.8,7.8,10.7,5.3,17.9
		c-1,2.9-2.4,5.7-3.7,8.5C111,79,110,81,109,83c-3.6-1.6-5.1-1.1-6.9,2.4c-0.9,1.7-1.6,3.7-1.8,5.6c-0.3,3.5,0.9,6.4,4.7,7
		c-1,5-1.8,9.8-2.8,14.6c-1.8,8.3-8.4,13.7-16.9,14c-5,0.2-9.8-0.4-14.7-2.3c-2,4.7-4,9.5-6.1,14.1c-0.8,1.8-1.7,3.5-2.6,5.3
		c-3.3,6.4-8.7,9.1-15.6,9.5c-3.1,0.2-6.2,0.1-9.2,0.7c-7.6,1.5-11.9,6.4-13.4,13.9c-1.5,7.3-1.2,14.5,0.1,21.8
		c1.6,8.8,9.8,15.6,19.1,16.1c3.7,0.2,7.4,0,11.2-0.1c5.8-0.2,11,1,14.3,6.4c1.7-2.3,3.3-4.7,5-6.9c3.3-4.1,4.6-8.9,4.1-14
		c-0.9-8,2.4-14,8.6-18.7c1.5-1.2,3.1-2.3,4.6-3.3c3.1-2.2,5.7-4.8,7.3-8.3c2.4-5,5.8-9.3,10.2-12.6c0.6-0.5,1.2-1.3,1.3-2.1
		c0.9-6.5,4.2-11.3,9.8-14.7c2.6-1.5,5.3-2.9,7.9-4.4c7.2-4,11.2-9.9,11.3-18.2c0.2-10.5,0.3-20.9,0.3-31.4c0-0.7-0.8-1.4-1.3-2.1
		c-2.7-3.7-5.7-7.2-8.2-11c-1.6-2.4-1.9-5.4-0.9-8.2c2.1-6,10.3-7.3,14.8-2.4c0.4,0.5,0.8,1,1.4,1.6c2.9-4.6,6.6-7.8,12.3-5.9
		c4.7,1.6,6.5,5.5,6.7,10.7c7.7-0.3,15.3-0.2,22.8-1c5.2-0.5,7.7-3.9,7.9-9.2c0.2-7.5,0-15.1,0.1-22.6c0-2.6,0.1-5.3,0.6-7.8
		c1.6-8.3,7.2-12.9,16-13.4c23.5-1.3,46.9-1.3,70.4-0.5c1.8,0.1,3.6,0.4,5.4,0.8c7.6,1.8,12.2,6.6,12.6,14.4
		c0.6,9.4,0.5,18.9,0.7,28.3c0,2.5,0,5,0,7.5c5.8,0,11.4,0,17.4,0c0-4.7-0.2-9.3,0-13.7c0.7-10.8,7-17,17.9-17.3
		c16.3-0.3,32.5-0.4,48.8-0.5c4.3,0,8.7,0.3,13,1c9.3,1.6,15.1,8.4,15.5,18.3c0.4,8.3,0.6,16.7,0.5,25c-0.2,7.4-2.6,14.1-9.6,17.9
		c-2.2,1.2-4.7,1.9-7.1,2.4c-4.3,0.8-5,1.5-5,5.9c0,2.1,0.2,4.1-0.1,6.2c-0.1,1.1-0.9,2.8-1.7,3c-1,0.3-2.8-0.2-3.5-1.1
		c-2.5-2.7-4.9-5.6-7.1-8.6c-2.4-3.3-5.4-4.9-9.5-4.9c-10-0.1-20-0.2-30-0.5c-3.1-0.1-6.3-0.4-9.4-1.1c-8.2-1.9-12.3-7.6-12.6-17.2
		c-0.1-4.3,0-8.5,0-13c-3.2,0-6,0-8.8,0c-2.8,0-5.5,0-8.8,0c0,5.9,0.1,11.7,0,17.5c-0.1,5.8,0,11.6-0.5,17.3
		c-0.8,8.9-7.1,15.1-16,15.6c-8.9,0.5-17.8,0.4-26.6,0.5c-0.9,0-1.9,0-3.3,0c0,5.3,0.3,10.3-0.1,15.4c-0.3,5-1.4,9.9-5.5,14.1
		c3.8,0,7.5-0.1,11.3,0c6.9,0.1,12.7,2.4,16.5,8.6c2.9,4.8,7.6,4.2,12.1,4c4.2-0.2,8.2,0.1,11.7,2.8c3.1,2.4,4.8,5.6,4.7,9.6
		c0,0.6,0,1.3,0,1.9c0,6,1.6,8,7.6,9.2c-0.9-2.9-2-5.7-2.5-8.7c-0.4-3.1-0.6-6.4-0.1-9.4c1.1-6.7,5.9-10.7,13.4-11.8
		c3.7-0.5,7.5-0.5,11.6-0.8c-5.7-8.8-11.3-17.6-17.2-26.8c1.4-0.1,2.1-0.1,2.8-0.1c29.9,0,59.8,0,89.7,0c0.8,0,1.6,0.4,2.4,0.5
		c-0.3,0.8-0.5,1.6-0.9,2.3c-5.5,9.1-11,18.1-16.6,27.2c-0.3,0.5-1.1,0.8-1.7,1.2c0.1-0.7-0.1-1.5,0.2-2c5-8.3,10-16.5,15-24.8
		c0.5-0.9,1-1.7,1.6-2.8c-29.9,0-59.5,0-89.6,0c0.7,1.1,1.1,1.8,1.5,2.5c4.7,7.3,9.4,14.5,14,21.8c0.4,0.7,0.6,1.5,0.8,2.3
		c-0.9,0.2-1.8,0.7-2.6,0.6c-4.7-0.2-9.3-0.4-13.9,1.1c-6.3,2.1-9.5,6.5-9.5,13.2c0,5.3,1.2,10.2,3.7,14.8c0.5,0.9,1.2,1.6,2,2.3
		c4.3,3.9,8.1,8.1,8.6,14.2c0.6,6.3-1.8,11.3-6.4,15.3c-1.5,1.4-3.1,2.7-4.5,4.2c-1.5,1.7-2.2,3.8-1.1,5.9c1,2.1,2.8,2.9,5.1,2.8
		c2.5-0.1,4.4-1.2,5.5-3.5c0.5-1,0.8-2.1,1.3-3.5c1.9,2,1.8,4.1,1.4,6c-1,6.1-6.3,10.5-12.5,10.5c-4.6,0-8.7-1.3-12.4-4
		c-1-0.8-2-1.5-3.5-2.6c1.4,5.6,2.8,10.7,4,15.8c2.4,10.2,4.8,20.5,7.2,30.7c1.5,6.3,0.4,12.1-3.3,17.4c-3.8,5.4-7.8,10.6-11.7,15.8
		c-1.1,1.5-1.3,2.7-0.4,4.4c2,4,3.9,8.1,5.8,12.2c0.7,1.6,1.8,2,3.5,2.2c12.9,1.3,18.8-8.9,19.2-18.1c0.3-8.1,0-16.2,0.4-24.3
		c0.2-4,0.7-8.1,1.7-11.9c1.6-5.8,6.7-9.4,12.8-9.6c2.8-0.1,5.7,0,8.8,0c0-4.6,0-9.1,0-13.6c0-5.3,0.1-10.6,0.3-15.9
		c0.3-7.9,5.4-13,13.9-13.2c14.6-0.2,29.2-0.3,43.8-0.1c8.7,0.1,13.4,4.5,13.7,13.1c0.4,11.3,0.3,22.5,0.3,33.8
		c0,4.8,0,9.7-0.8,14.4c-1.1,7-5.7,10.7-12.8,10.9c-5.4,0.2-10.8,0-16.5,0c0,5.6,0,10.6,0,15.6c0,4.7-0.2,9.4-0.1,14
		c0.2,6.6-2.8,11.5-7.8,15.2c-2.7,2-5.9,3.4-8.7,5.2c-0.6,0.4-1.4,1.2-1.4,1.8c-0.1,4.2-0.1,8.4-0.1,12.1c4.3,1.1,8.5,1.8,12.4,3.3
		c6.2,2.5,10.6,6.9,12,13.7c0.8,4.2-0.1,8-2.2,11.6c-4.3,7.5-11.2,11.1-19.5,12.6c-0.9,0.2-1.8,0.4-3.3,0.7c0,4.2,0.1,8.4,0,12.6
		c-0.1,6.1-3,10.5-7.8,12.1c-4.3,1.5-8.2,0.6-11.3-2.7c-2.5-2.7-3.7-5.9-2.3-9.6c1.5-4,7.1-5.7,10.5-3.1c1.5,1.1,2.1,2.6,1.6,4.4
		c-0.4,1.5-0.7,3.1-3.3,3.4c0.5-1,0.7-1.6,1-2.2c1.6-2.5,0.5-4.8-2.5-5c-4.6-0.4-7.3,3-6,7.4c1.1,3.7,4.4,6.3,8,6.4
		c4.2,0.1,8.1-2,9.1-5.8c0.9-3.6,1.1-7.5,1.5-11.2c0.2-2.2,0-4.4,0-6.6c-6.6,0.7-12.9,0.1-18.9-1.9c-15.9-5.3-20.5-23.8-9-36.3
		c6.5-7.1,14.6-11.9,23.3-15.7c4-1.7,6.1-3.7,5.2-8.1c-0.2-0.8,0-1.7,0-2.6c-6.6-0.3-9.9-2.3-11.6-7c-1.4-3.8-0.3-6.7,2.8-8.2
		c3.2-1.5,7.2-0.5,8.8,2.8c1,2.1,1.3,4.7,1.7,7c0.2,1,0,2,0,3.6c2.6-1.2,4.9-2.2,7.2-3.2c2.6-1.2,5.2-2.3,7.7-3.6
		c0.6-0.3,1.2-1.4,1.2-2.1c0.1-6.2,0.2-12.4,0.2-18.6c0-3.8,0-7.6,0-11.8c-6.1,0-12.1,0-18.1,0c-3.6,0-7.1-0.1-10.7-0.3
		c-7-0.4-11-6.9-11.2-12.2c-0.2-4.7-0.2-9.5-0.3-14.3c0-0.4,0-0.8-0.1-1.8c-4,0.2-8,0-11.8,0.8c-5.3,1.1-8.9,6.1-9.2,12.5
		c-0.4,9.3-0.3,18.7-0.6,28.1c-0.1,5.4-0.9,10.8-4.2,15.3c-3.6,4.9-8.4,7.6-14.6,7.6c-1.1,0-2.2,0-3.5,0c0.4,1.2,0.8,2.4,1.2,3.5
		c1.8,5.8,0.3,10-4.7,13.4c-1,0.7-2.2,1.1-3.4,1.7c-1.8,0.9-4.2,0.3-5.3,2.9c-1.4,3.1-2,6.1-0.8,9.4c0.4,1,0.7,2.1,1,3.2
		c2.1,6.1-0.9,12.7-6.7,15.1c0.5,1.6,1.4,3.2,1.5,4.8c0.1,1.6-0.7,3.3-1.1,4.8c6.2-0.3,12.5-0.9,18.8-0.9c9.2,0,15.1,5.2,16.1,14.4
		c0.6,5.4,0.5,10.9,0.6,16.4c0.1,7.5-0.2,14.9,0,22.4c0.2,6.4,2,12.3,8,15.8c4.8,2.9,10.2,3.2,15.6,3.3c4.9,0.1,9.8,0,14.8-0.1
		c1.9,0,3.3,0.3,3.7,2.8c11.6-4.6,20.1-12,23.6-24.1c0.7-2.3,1.1-4.6,1.7-6.9c0.6-2,1.4-4,3.8-4.5c2.7-0.6,5.3-0.2,6.9,2.1
		c1.4,2,2.7,4.4,2.9,6.8c0.8,7.2-0.9,14-4.2,20.4c-0.3,0.5-0.5,1-0.7,1.5c-0.1,0.1,0,0.3,0,0.6c6.6,0,13.1,0,19.7,0
		c3.2,0,6.1,0.8,8.2,3.5c3.2,4.1,2,9.2-2.9,11.9c4.2,5.4,3.1,9.6-3.2,12.4c5.2,5.4,4.3,10.3-2.6,13.4c2.1,2.3,2.5,4.9,0.9,7.7
		c-1.5,2.7-4,3.6-7,3.5c-6.8-0.2-13.6-0.2-20.5-0.4c-6.4-0.2-12.1-2.6-17.7-5.7c-5.2-2.9-5.6-3-9.1-2.7c-0.1,0.1-0.3,0.2-0.3,0.4
		c-0.5,5.6-1.2,6.4-6.1,6.6c-6,0.2-8.4-1.3-8.9-6.4c-0.4-4.6-0.3-9.2-0.4-13.8c0-1.4,0-2.8,0-4.3c-0.3-0.1-0.5-0.3-0.7-0.3
		c-11.3,0.1-22.7,0-34,0.4c-9.4,0.3-15.9,6.8-16.2,16.2c-0.4,15.3-0.3,30.6-0.5,45.9c0,1-0.3,1.9-0.5,2.9c-0.3,0-0.6,0-0.9,0.1
		c-0.4-0.8-0.8-1.6-1.1-2.4c-3-9.1-5.7-18.2-9-27.2c-6.2-16.8-17.6-29.2-33.2-38c-11.7-6.6-23.2-13.4-34.6-20.2
		c-3.3-2-6.3-4.5-9.7-7c-0.7,1.4-1.3,2.7-1.9,3.9c-3.3,7.1-6.7,14.1-9.9,21.2c-2.4,5.3-6.6,7.9-12.3,8.3c-7.6,0.5-14.7-1.5-21.6-4.6
		c-16.3-7.4-30.6-17.9-44.1-29.5c-11.5-9.9-22.3-20.5-32.4-31.9c-0.6-0.7-1.3-1.4-1.6-1.7c-10.8,5.8-21.4,11.6-32.2,17.4
		c1.3,0.8,2.9,1.9,4.6,2.9c6.9,3.9,13.9,7.6,19.3,13.7c6.2,7,9.1,15.2,10.5,24.2c0,0.2,0.1,0.5,0.2,0.9c6.6-0.6,13.4-1.6,18.9,3.5
		c5.2,4.7,6.3,11.3,7.2,17.6c4.8,1.6,9.7,2.9,14.2,4.9c3.5,1.5,6.6,4,9.9,6c1,0.6,1.9,1.4,3,1.8c11.2,3.7,19.7,10.7,26,20.4
		c6.9,10.5,10.6,22.2,12.1,34.6c1.8,14.1,2.4,28.3,2.2,42.5c0,5.2-0.9,10.4-1.5,15.8c0.7,0,1.9,0,3,0c6.5-0.1,13,0.2,19.5-0.5
		c9.3-1,15.1-6.6,16.1-15.9c0.9-8.4,0.7-16.9,1.1-25.4c0.3-5.2,0.4-10.5,1.5-15.5c1.5-6.5,7.5-10.7,14.3-10.8
		c20.2-0.1,40.3,0,60.5-0.1c1.7,0,3.6-0.5,5.1-1.3c18.9-9.9,37.8-19.9,56.7-29.9c0.7-0.4,2-0.4,2.8,0c19.9,9.9,39.7,19.9,59.6,29.9
		c0.5,0.2,0.9,0.6,1.6,1.1c-0.9,0.7-1.6,1.3-2.4,1.7c-7.9,4.4-15.7,8.8-23.6,13.2c-1.3,0.7-1.8,1.5-1.7,2.9c0.1,6.5,0.1,13,0.1,19.5
		c0,0.9,0.1,2.2-0.5,2.7c-2.1,2.3-1.7,4.9-1.7,7.6c0.1,3,0,6,0,9.2c4.3,1,5.1,4.3,5.2,7.9c0.2,5.7,0.1,11.4,0.1,17.1
		c0,1.4-0.5,2-1.9,2c-2.8,0-5.6,0-8.3,0.1c-1.3,0.1-1.7-0.5-1.6-1.7c0-6.1-0.1-12.2,0.1-18.3c0.1-3.1,1-6.2,4.8-7
		c0-4.2,0-8.3,0-12.8c-1.5,0.9-2.6,1.5-3.7,2.2c-9.7,6.1-20.3,8.9-31.7,8c-10.2-0.8-20.1-3-28.3-9.6c-3.8-3.1-5.6-7.1-5.5-12.1
		c0.1-6,0-12,0-18.6c-6.8-3.7-14.4-7.9-22-11.9c-0.8-0.4-1.9-0.4-2.8-0.4c-20,0-40-0.1-60-0.1c-8.9,0-14.6,6.3-14.8,16.3
		c-0.2,9.2-0.2,18.4-0.6,27.6c-0.2,3.7-0.8,7.6-1.9,11.2c-2.4,7.9-9.1,12.8-17.5,13c-6.9,0.1-13.8,0.1-20.7,0c-1.6,0-2.3,0.5-3,1.9
		c-4.8,9.6-12.3,15.7-23.2,17.2c-0.5,0.1-1.3,0.4-1.5,0.9c-3.1,5.7-8.4,8.3-14.2,9.9c-14.7,4.2-29.6,5.8-44.9,4.6
		c-10.7-0.8-21.4-1.2-32-2.2c-7.5-0.7-15-1.6-22.2-3.3c-7.3-1.7-11.4-7.5-11.5-15c-0.2-13.8-0.1-27.6,0-41.4
		c0.1-11.5,0.3-23,0.9-34.5c0.6-11.8,2.1-23.5,6-34.7c5.4-15.8,16.6-25.2,32.4-29.5C65,495.4,67.5,495,70.2,494.4z M157.2,290.4
		c0,0.4-0.1,0.8-0.1,1.1c0,10.1-0.2,20.2,0.1,30.2c0.2,6.2,0.9,12.5,2,18.6c2.5,13,10.2,23.1,19.1,32.5c14.2,15,30.2,27.8,47.4,39.1
		c6.3,4.2,12.6,8.4,20.1,10.6c10.9,3.2,21.3-0.9,25.1-10.5c1.4-3.4,1.7-7.4,2-11.1c0.4-5.7,0.7-11.2,5.3-15.8c-0.7,0-1,0-1.3,0
		c-7,1.2-13.2-1.5-19.6-3.6c-0.5-0.2-0.8-1-1.1-1.5c0.6,0,1.3-0.2,1.9,0c1.8,0.6,3.5,1.4,5.3,1.9c4.6,1.3,9.3,2.6,14.2,1.5
		c2.8-0.6,5-3.1,5-5.7c0-2.1-2-4.3-4.7-5.1c-2.9-0.9-5.9-1.8-8.8-2.7c-2-0.6-3.9-1.3-6-1.5c-6.2-0.8-12.4-1.4-18.6-2.1
		c-1.6-0.2-3.1-0.6-4.8-1c1.4-3.3,4-3.8,6.4-4c7.2-0.6,14-2.3,20.5-5.5c3.3-1.6,6.9-1.6,10.2,0.5c1.3,0.8,2.6,1.8,3.9,2.8
		c-0.5-2.5-1.4-5-1.5-7.4c-0.1-2.7,0.5-5.4,1.1-8.1c0.3-1.4,1.4-2.1,3-2.1c1.8,0,3.6-0.3,5.6-0.5c-0.2-0.7-0.3-1.3-0.5-1.9
		c-1.2-2.8-3.9-3.6-6.3-4.7c-3.8-1.7-7.7-1.6-11.6-0.2c-0.9,0.3-2,1.5-2,2.3c0,0.8,1.2,1.9,2.1,2.2c1.8,0.6,3.7,0.7,5.5,1
		c0.9,0.1,1.7,0.2,2.6,0.4c-0.4,0.8-0.9,1.2-1.3,1.2c-3.3,0-6.6,0.3-9.7-0.2c-2.3-0.4-4.9-1.3-6.6-2.8c-5.3-4.4-4.1-14.9,1.8-18.6
		c2.6-1.6,5.1-1.6,7.6-0.1c0.5,0.3,0.7,1,1.1,1.5c-0.6,0-1.3,0.1-1.8-0.1c-3.4-1.5-5.9-1-8.1,2.1c-2.5,3.5-3.1,7.4-1.5,11.5
		c1.1,3,4.4,4.8,7.7,4.5c-1.7-3.3-1-5.3,2.5-6.4c2.3-0.7,4.8-1,7.2-0.9c5,0.3,12.7,3.3,13.1,9.4c6.1-0.5,10.9-4.6,10.7-9.6
		c-0.1-2.8-1.1-5.7-2.3-8.3c-3.5-7.7-7.3-15.2-10.9-22.9c-1.7-3.5-2.9-7.3-2.3-11.2c1.1-7.5,5.5-13,11.5-17.3c2.8-2,5.9-3,9.4-1.5
		c0.4-3.8-11-49.7-13.2-53.4c-0.6,0.3-1.2,0.6-1.9,0.9c-3,1.2-5.9,1.2-8.6-0.5c-1.7-1-3.1-2.6-2.1-4.5c0.5-1.1,2.6-2.1,3.8-2
		c3.1,0.4,6.1,1.6,9.3,2.5c1.9-3.1,1.6-7.7-1.3-11.8c-2.6-3.7-5.6-4.8-10.1-3.8c-1.2,0.3-2.4,0.6-3.7,0.9c-5.4,1.2-10.2,0.5-14-4
		c-0.7-0.8-1.3-1.6-2-2.6c-1.6,3.6-3.7,6.5-6.9,8.5c-6.7,4.2-11.8,2.7-15.4-4.3c-0.6-1.2-2-2.3-3.2-2.8c-3.3-1.2-6.5-0.4-9.5,1.4
		c-5.1,3-10.4,5.3-16.5,5.2c-0.9,0-1.9,0.3-2.8,0.6c-7.1,2.7-12.8,11.2-12.6,18.8c0.2,8.4-2.6,12.4-10.5,15
		c-6.3,2.1-11.6,5.5-14.7,11.6c-1.8,3.6-2.7,7.4-2.9,11.4c-0.2,5.3-0.6,10.7-0.9,16.4c0.8-0.4,1.3-0.6,1.8-0.9
		c6.4-4.4,13.4-7.4,20.7-9.9c11.5-3.8,23.2-7,34-12.5c10.2-5.2,20.6-6.1,31.6-3.2c7.3,1.9,14.9,3.4,21.4,7.5
		c2.5,1.6,4.9,3.7,6.5,6.1c2.7,4.2,0.3,9.5-4.6,10.5c-1.7,0.3-3.8,0.4-5.4-0.3c-5.1-2-10-4.4-14.9-6.6c-8.5-3.8-17.1-7.2-26.5-7.7
		c-9.4-0.5-18.7,0.6-27.7,3.3c-11,3.3-22.1,6.6-32.1,12.7c-3.4,2.1-5.4,4.3-4.7,8.5c0.1,0.6,0,1.3-0.1,1.9
		C165.6,290.5,164.3,291.5,157.2,290.4z M186.3,129.5c-3.5-1.1-6.6-2.5-9.8-3c-12.2-1.8-22.2,3.2-31,10.9c-3.3,2.9-6.2,3.8-10.4,3.6
		c-14.7-0.6-26.6,5.1-34.3,17.6c-3.5,5.8-7.6,10.6-13.2,14.3c-6.5,4.3-9.7,10.2-8.9,18.2c0.6,6.1-1.4,11.4-5.2,16
		c-3.8,4.6-6.5,9.9-7.8,15.8c-1.4,6-0.7,11.6,4.5,15.7c4.7,3.8,5.1,5.3,3.6,11.2c-0.8,3-1.4,6.2-1.2,9.3c0.3,5.9,2.9,11.1,5.8,16.2
		c4.8,8.5,8.4,17.3,8.8,27.3c0.4,9.8,4.5,18.1,11.5,25.1c3.7,3.7,5.7,8.3,6.8,13.3c0.4,2,0.7,4.1,2.9,5.5c0.1-0.6,0.2-1,0.2-1.4
		c0.3-10.5,0.5-20.9,0.7-31.4c0-0.8-0.3-1.7-0.6-2.5c-4.5-9.4-7-19.3-7.3-29.7c-0.2-6.4-0.2-12.8,2.1-19
		c4.5-12.3,15.9-16.2,26.4-8.5c4.3,3.1,8.3,7,11.5,11.2c5.4,6.9,10,14.4,14.6,21.2c2.8-3.3,5.7-6.7,8.6-10.2
		c0.4-0.5,0.7-1.4,0.7-2.1c0.2-5,0.3-10,0.5-15c0.4-7.5,2.2-14.4,7.9-19.7c3.5-3.3,7.7-5.1,12.2-6.6c5.7-1.8,8.3-5.9,8.1-11.9
		c-0.1-1.8,0-3.7,0.4-5.4c1.6-8.7,11.5-18.4,19.8-16.9c0.7,0.1,1.5,0,2.1-0.3c3.9-1.7,7.8-3.3,11.7-5.1c6.8-3.2,11.6-1.5,15,5
		c0.7,1.4,2.3,2.9,3.8,3.1c6.9,1.3,14.5-5.3,14.5-12.3c0-0.7,0.3-1.3,0.5-2c0.2,0,0.4,0,0.7,0c0.3,0.8,0.7,1.6,1,2.5
		c1.9,5.6,5.9,8.4,11.7,8.1c2.1-0.1,4.2-0.8,6.3-1.1c3.1-0.6,6.1-0.8,9,0.9c4.8,3,7.5,10.6,5.5,15.9c-1.2,3.4-0.2,6.9,2.8,9.1
		c1.2,0.9,2.4,1.8,3.6,2.7c3.8,2.9,8.2,3.7,12.8,3.1c4.4-0.5,8.7-5.1,8.5-8.9c-0.4,0.4-0.8,0.8-1.2,1.1c-2.8,2.4-7.7,2.3-10.3-0.2
		c-2.5-2.3-2.6-6.1-0.2-9.3c1.1-1.5,2.6-2.8,4-4c5-3.9,7.9-9,6.7-15.3c-1.3-7.1-5.8-12.5-12.7-14.8c-6.5-2.2-8.1-5.1-7.9-11.7
		c0.2-6.5-4.3-11.6-10.8-11.7c-3-0.1-6-0.1-9,0c-2.8,0.1-5.1-1.1-6.9-3.2c-0.9-1-1.7-2.1-2.5-3.2c-2.3-3.1-5.2-5.3-9-5.6
		c-6.4-0.5-12.8-0.9-19.2-0.9c-7.3,0-13.9-1.6-20.2-5.3c-6.6-3.9-13.7-6.3-21.3-6.9c-4.8-0.4-9.6,0.3-14.2,2.1
		c2.2,3,3.8,5.9,4.3,9.3c-0.3,0.2-0.5,0.3-0.8,0.5c-1.6-3-3.2-6-5.1-9.5c-3.2,2.4-5.9,4.4-8.7,6.4c-0.5,0.4-1.3,0.4-2,0.6
		c0.3-0.7,0.4-1.5,0.9-1.9C180.5,133.7,183.1,131.8,186.3,129.5z M143.6,324.2c-1.8,3.5-4.9,4.4-8.5,4.3c-5-0.1-9.5-1.7-13.6-4.4
		c-3.7-2.5-7-5.5-10.2-8.1c-0.3,9.5-0.6,19.4-1,29.3c-0.6,12.4-2.5,24.5-6.7,36.3c-4.1,11.6-10,22.1-19.9,29.8
		c-0.7,0.6-1.4,1.1-2.6,2.1c9.4,9.4,18.4,18.8,28,27.6c11.1,10.2,22.6,19.9,35.8,27.4c9.3,5.3,18.5,10.7,29.4,12.1
		c9.1,1.1,15.1-1.4,17.8-9.8c1.2-3.7,2.9-7.3,4.9-10.8c4.9-8.8,8.4-18,9.8-28c1-7.1,4.1-13,11.1-16.1c0.4-0.2,0.9-0.4,1.5-0.8
		c-0.8-0.4-1.3-0.7-1.7-0.9c-15.7-8.9-31.6-17.7-47.2-26.9c-5.5-3.2-10.5-7.3-15.3-11.6c-8.6-7.8-11-18.4-11.3-29.5
		C143.4,338.8,143.6,331.5,143.6,324.2z M25.2,589c-0.1,0.2-0.2,0.4-0.2,0.5c-0.2,15.1-0.5,30.2-0.4,45.2
		c0.1,9.2,4.8,14.5,13.6,15.9c7.2,1.2,14.5,1.9,21.7,2.5c8.9,0.8,17.9,1.4,26.8,1.7c7.5,0.3,15.1,0.4,22.6,0.1
		c7.1-0.2,13-5.5,14.2-12.5c0.7-3.8,1-7.7,1-11.6c-0.2-30.5-0.5-60.9-1-91.4c-0.1-9.2-0.9-18.4-3.5-27.5c-2.9-9.7-9.3-14.5-18.8-16
		c-12.1-1.9-24.2-1.3-36.2,1.2c-11,2.3-20.4,7.6-27.2,16.9c-5,6.7-7.2,14.5-8.9,22.5c-2.6,12.2-3.4,24.6-3.6,37.1
		c-0.1,4.4,0,8.8,0,13.2c1.1,0,2.1,0,3.2,0c0.2-1.6,0.4-3,0.5-4.4c0.8-7.1,4.7-11.3,11.7-12.2c3.8-0.5,7.7-0.9,11.6-1.1
		c15.1-0.6,30.3-0.9,45.3,1.6c5.1,0.8,9.6,2.7,11.4,8c0.8,2.4,1.3,4.9,1.3,7.4c0,13.6-0.1,27.1-0.4,40.7
		c-0.2,8.4-4.6,12.8-12.9,12.9c-19,0.3-37.9-0.6-56.8-2.5c-7.1-0.7-10.5-3.6-12-9.6c-0.4-1.8-0.7-3.6-0.7-5.4
		c0-6.8,0.2-13.6,0.3-20.5c0-4.3,0-8.5,0-12.9C26.9,589,26,589,25.2,589z M344.9,455.4c-3.3-0.2-7.1-0.3-10.8-0.8
		c-8.8-1.1-14.5-5.9-16.5-14.1c-0.7-3-1-6.1-1-9.2c0-9.2,0.2-18.4,0.2-27.6c0-2.8-0.2-5.7-0.8-8.5c-1.8-8.4-6.6-12.4-15.2-12.4
		c-5.1,0-10.3,0.6-15.4,1c-5.7,0.4-8.7,4-9.9,9c-0.8,3.4-0.9,7-1.1,10.6c-0.6,14.9-12,24-26.5,21.4c-8.3-1.5-16.3-4-23.9-7.5
		c-2-0.9-3.8-0.8-5.7,0c-4.7,2-7.8,5.5-9.1,10.4c-1.7,6.5-3,13-4.5,19.7c4.7,3.3,9.4,6.9,14.5,10c10.2,6.1,20.6,11.9,30.9,17.8
		c13.2,7.6,23.8,17.7,30.1,31.7c3.5,7.8,6,16.1,8.9,24.2c0.7,2.1,1.3,4.2,2,6.3c0.5-13.6,0.3-27.1,0.5-40.6
		c0.1-8.2,2.8-15.3,11.1-18.5c3-1.2,6.3-1.7,9.5-1.8c9.4-0.2,18.9-0.1,28.3-0.1c1.2,0,2.5,0,4.3,0
		C344.9,469.2,344.9,462.3,344.9,455.4z M46.9,430.1c10-4.2,19.4-9.2,28.5-15c10.1-6.3,18.1-14.5,23.1-25.5
		c5.1-11.2,8-22.9,9.3-35.1c0.3-3.2,0.7-6.2-2.2-8.6c-0.9-0.7-1.3-2.4-1.5-3.6c-1.1-6-4-10.9-8.2-15.2c-6.1-6.2-9.9-13.8-10.2-22.4
		c-0.4-10.6-3.9-19.9-9-28.9c-0.3-0.6-1.1-1.2-1.7-1.2c-5.8-0.1-11.6-0.3-17.3,0.1c-9,0.6-15.6,7.2-16.4,16.2
		c-0.4,5-0.4,10.1-0.4,15.2c0.1,37.1,0.3,74.2,0.4,111.4C41.2,422.6,43.1,426.7,46.9,430.1z M388.3,103.8c0.3-0.1,0.6-0.2,0.9-0.3
		c0.2-1,0.5-1.9,0.5-2.9c0.1-2.5,0-5.1,0.1-7.6c0.1-2.1,1.1-3.6,3.2-4.2c1-0.3,2-0.5,3-0.7c9.5-1.9,14.9-7.5,15.2-17.3
		c0.3-9.4,0.1-18.9-0.6-28.3c-0.5-8.1-5.9-13.4-14-14.7c-3-0.5-6-0.7-9-0.9c-17.6-0.7-35.2-1-52.8,0.4c-10.7,0.8-15.3,5.9-15.8,16.4
		c-0.5,10,0,20,0.4,30c0.2,6.8,4.1,11.4,10.5,13c2.4,0.6,5,1,7.5,1.1c10.5,0.3,20.9,0.4,31.4,0.5c4.6,0.1,8.5,1.7,11.3,5.5
		c1.6,2.1,3.1,4.2,4.8,6.2C385.9,101.4,387.1,102.5,388.3,103.8z M194.5,56.8c-3.4,3.1-7.3,4.3-11.5,4.5c-5.9,0.2-11.9,0.1-17.8,0.2
		c-0.8,0-2.1,0.4-2.3,0.9c-2.9,8.2-9.5,13-15.8,18.2c-1.2,1-2.2,1-3.3-0.1c-1-0.9-2.1-1.8-3.5-2.9c0,1.9,0,3.3,0,4.7
		c-0.1,9.4-0.3,18.7-0.5,28.1c-0.1,3.7-1.3,7.1-3.3,10.3c-2.9,4.6-7.5,7.1-12.1,9.7c-2.2,1.2-4.5,2.4-6.5,3.9
		c-3.7,2.8-6,6.5-6.8,11.5c2.5-1.2,4.6-2.5,6.8-3.4c6.2-2.7,12.7-3.2,19.3-2.9c1.7,0.1,3.9-0.2,5-1.3c3.9-3.9,8.5-6.9,13.4-9.4
		c10.2-5.1,20.5-6,30.9-0.4c0.8,0.4,1.9,0.3,2.8,0.1c3.3-0.6,6.5-1.6,9.7-1.8c8.7-0.5,16.7,1.8,24.3,5.9c4.7,2.5,9.3,4.9,14.7,5.8
		c5.9,0.9,10.2-1.3,12.1-6.7c2.5-7.2,1.7-14.7,2-22.3c-1.2,0-2,0-2.9,0c-11.9,0-23.8,0.1-35.7,0c-8.6-0.1-15-3.9-17.2-10.9
		c-1.1-3.3-1.6-7-1.7-10.5C194.4,77.6,194.5,67.2,194.5,56.8z M246.5,107.6c0-0.1,0-0.1,0-0.2c11.4,0,22.8,0.1,34.3,0
		c9.2-0.1,15.2-5,16.9-13.7c0.4-2.1,0.6-4.3,0.6-6.4c-0.1-21.4-0.1-42.8-0.4-64.3c-0.1-9.7-6-15.4-15.7-15.7
		c-9.7-0.3-19.3-0.7-29-0.6c-14.3,0.1-28.7,0.5-43,1.1c-8.1,0.4-12.6,4.7-13.6,12.6c-0.5,4.2-0.5,8.5-0.5,12.8
		c0.1,18.6,0.2,37.1,0.4,55.7c0.2,13.1,6.1,18.7,19.2,18.6C225.9,107.5,236.2,107.6,246.5,107.6z M233.7,419.5
		c0.1-0.1,0.1-0.2,0.2-0.4c-0.2-0.1-0.3-0.3-0.5-0.4c-15.4-9.3-30-19.6-43.1-31.9c-7.9-7.3-15.3-15.2-22.2-23.5
		c-9.4-11.3-12.3-25.2-12.6-39.5c-0.2-10.9,0-21.9-0.1-32.8c0-1.2-0.3-2.6-1-3.5c-4.8-7.4-9.6-14.7-14.6-21.9
		c-3.3-4.7-7.5-8.6-12.6-11.5c-8-4.6-16.3-2.5-20.6,5.6c-1.8,3.5-3.2,7.5-3.5,11.4c-0.9,11.7,0.3,23.2,4.7,34.3
		c4.2,10.6,11.7,17.5,22.5,20.7c7.6,2.3,11.5,0,13.1-7.1c0.2-0.7,0.7-1.3,1.1-2c0.3,0.7,0.7,1.5,0.8,2.2c0.1,0.9,0,1.9,0,2.9
		c-0.1,8-0.3,16-0.2,24c0.2,14.4,5.8,26,17.9,34.3c19.1,13.1,39.3,24.2,60,34.5C226.5,416.7,230.2,418,233.7,419.5z M29.9,589.3
		c0,0.1-0.1,0.4-0.1,0.7c-0.3,7.8-0.7,15.7-0.8,23.5c-0.1,3.9,0.1,7.8,0.4,11.6c0.5,5.9,3,8.8,8.8,10.2c1.7,0.4,3.4,0.6,5.2,0.7
		c8.6,0.6,17.2,1.3,25.9,1.7c8.6,0.4,17.3,0.7,25.9,0.6c9.2,0,13-3.7,13.2-12.4c0.3-11.3,0.4-22.5,0.5-33.8c0-0.8-0.1-1.7-0.1-2.5
		c-4.1,0-7.8,0-11.9,0c0,2.9,0.1,5.7,0,8.4c-0.2,2.7-1.9,4.2-4.3,4.1c-2-0.1-3.1-1.7-3.1-4.3c0-2.7,0-5.5,0-8.5
		C69.3,589.3,49.6,589.3,29.9,589.3z M383.1,569.2c-4.9-2.3-9.7-4.5-14.5-6.9c-5.1-2.5-10.2-5.2-15.1-7.9c-0.7-0.4-0.9-1.6-1.3-2.4
		c0.9-0.4,1.9-1.1,2.8-1.1c1,0,2.1,0.7,3.1,1.2c8,4,16.1,7.8,23.9,12.1c4.1,2.3,7.2,2.5,11.3-0.2c6.5-4.2,13.4-7.7,20.3-11.5
		c-0.5-0.3-0.7-0.5-1-0.6c-19.1-9.6-38.1-19.2-57.2-28.7c-0.7-0.4-2-0.2-2.8,0.2c-15.8,8.2-31.6,16.5-47.3,24.7
		c-3.2,1.7-6.2,3.4-9.7,5.3c3.7,2,6.9,3.7,10.2,5.5c15.6,8.4,31.2,16.9,46.7,25.4c1.3,0.7,2.3,0.7,3.7-0.1
		C365.1,579.3,374,574.3,383.1,569.2z M381.4,216.9c0-0.1,0-0.2,0-0.2c-5.2,0-10.3,0-15.5,0c-1.7,0-3.5,0.2-5.2,0.2
		c-9.5,0.3-13.6,4-13.7,13.5c-0.2,14.5-0.3,29,0,43.6c0.1,7.7,5.2,12.3,12.6,12.1c7.1-0.2,14.1,0,21.2,0c8-0.1,16-0.1,24-0.5
		c5.2-0.2,8.4-3.2,9.8-8.2c0.4-1.6,0.8-3.3,0.8-4.9c0.1-14.6,0.2-29.2,0-43.8c-0.1-7.4-4.1-11.4-11.6-11.6
		C396.4,216.7,388.9,216.9,381.4,216.9z M390.9,453.7c4.7-6.4,7.8-16.3,6.9-23.5c-0.3-2.3-1.6-4.7-3.1-6.4c-2.5-2.8-6.1-1.8-7.3,1.9
		c-0.2,0.7-0.4,1.4-0.5,2.1c-2.7,14.7-11.3,24.4-25,29.8c-1.4,0.5-1.7,1.3-1.7,2.6c0,6.5-0.1,13-0.1,19.5c0,4.8,0,9.6,0,14.7
		c4.2-0.7,7.3,1.7,10.7,3.2c4.2,1.9,8.6,4.1,13,4.7c7.2,0.9,14.5,0.7,21.8,0.9c1.4,0,2.9,0,4.3-0.2c2.4-0.4,4-2.8,3.8-5.3
		c-0.2-2.3-1.4-3.3-4.3-3.3c-0.4,0-0.9,0.1-1.2-0.1c-0.5-0.2-0.9-0.7-1.3-1c0.4-0.3,0.8-0.7,1.3-0.8c1.6-0.2,3.3-0.2,4.9-0.6
		c2.8-0.6,5-3.4,4.7-5.8c-0.3-2.9-2.7-5-5.9-5.1c-0.3,0-0.7,0.1-0.9,0c-0.7-0.3-1.4-0.6-2.1-0.9c0.7-0.3,1.3-0.7,2-0.8
		c2.8-0.3,5.7-0.4,7.9-2.6c2.7-2.8,1.5-7.3-2.2-8.3c-1-0.3-2-0.4-3-0.7c-0.5-0.2-0.9-0.6-1.3-1c0.5-0.2,1-0.6,1.6-0.6
		c1.3-0.1,2.5,0.1,3.8,0c2.8-0.1,4.5-1.9,4.7-4.7c0.2-3.7-1.5-6.1-5-7c-1.5-0.4-3.1-0.6-4.7-0.6c-6,0.1-12,0.3-18.1,0.4
		C393.4,454.1,392.3,453.9,390.9,453.7z M317.8,567.6c0,6.1,0.2,11.6-0.1,17.1c-0.2,5,1.6,9,5.6,11.9c1.8,1.3,3.7,2.6,5.7,3.4
		c19.1,8.1,37.4,7.3,54.7-4.7c0.7-0.5,1.2-1.6,1.2-2.5c0.1-6,0-12.1-0.1-18.1c0-1.3-0.2-2.6-0.3-4.1c-1,0.5-1.6,0.8-2.2,1.1
		c-8.6,4.8-17.3,9.5-25.9,14.4c-1.5,0.8-2.6,0.9-4.1,0c-6.2-3.4-12.6-6.7-18.8-10C328.5,573.4,323.5,570.7,317.8,567.6z
		 M137.1,509.7c3.6,4.8,5.9,10.1,7.2,15.9c1,4.4,2.4,8.3,6.2,11c0.4,0.3,0.7,0.8,1.1,1.3c5.1,7,7.8,15,9.1,23.4
		c1.3,8.4,2.1,17,2.7,25.5c0.5,8.1,1.3,16.3-0.2,24.4c-1.4,7.6-4.4,14.2-11.9,17.8c-0.4,0.2-0.8,0.9-0.9,1.4c-0.3,3-0.5,5.9-0.8,9.1
		c0.8-0.1,1.7-0.1,2.5-0.3c7.4-1.6,13-5.9,17.2-12.1c4.8-7.2,6-15.3,5.6-23.6c-0.5-13.3-1.2-26.6-2.3-39.9c-1-11.9-4.8-23-11-33.3
		C155.8,520.7,147.7,513.7,137.1,509.7z M149,587.5c-7.1,1.2-14,2.5-21.1,3.7c-1.8,0.3-2.1,1.1-2.1,2.7c0.2,12.1,0.4,24.3,0.3,36.4
		c0,8.6,0.1,17.4-7.7,23.7c6.4-1.5,12.7-2.9,18.8-5.1c7-2.4,11-7.5,11.2-15.2c0.1-3.9,0.5-7.8,0.5-11.6
		C149,610.8,149,599.5,149,587.5z M108.7,587.5c-0.2-1.8-0.4-3.7-0.6-5.5c-0.8-5-3.7-8-8.5-9c-3.5-0.8-7.2-1.5-10.8-1.6
		c-11.9-0.3-23.8-0.5-35.7-0.5c-4,0-8.1,0.4-12.1,1c-7.1,1-11.3,5.2-10.6,15.7C56.3,587.5,82.3,587.5,108.7,587.5z M108.2,80.5
		c1.2-2.4,2.5-4.7,3.4-7.2c1.2-3.3,2.5-6.7,3.1-10.1c0.9-5.6-3.3-11.4-8.7-12.5c-4.6,10.3-9.2,20.6-13.8,30.9
		c-0.9,2-1.7,3.8,0.4,5.6c0.6,0.5,0.8,1.6,0.8,2.4c0.4,3.8-1,7.2-2.8,10.4c-0.2,0.3-0.9,0.4-1.3,0.5c0-0.5-0.2-1-0.1-1.4
		c0.7-2,1.8-3.9,2.2-5.9c0.4-2.1,0.9-4.4-1-5.9c-1.8,2.1-3.2,4.4-5.2,6.2c-2,1.8-4.5,3-6.8,4.5c0.8,0.5,1.5,0.3,2.1,0.5
		c5.2,1.2,6,2.8,3.4,6.6c-2.2,3.2-4.8,6.1-7,9.3c-1.9,2.7-3.7,5.4-5.6,8.3c1.1,0.4,1.7,0.8,2.4,0.9c2.6,0.5,5.3,0.8,8,1.2
		c9.5,1.5,17.5-4.3,19.1-13.8c0.6-3.9,1.4-7.8,2.1-11.7c-4.2-2.6-5.4-7.1-3.2-12.8C101.4,81.7,104,79.8,108.2,80.5z M77.1,67.8
		c4.1,2.8,4.6,9,0.7,12.9c-2.7,2.8-6.1,3.8-10,3.6c-0.6,0-1.6,0.2-1.9,0.6c-1.9,2.4-3.7,4.9-5.6,7.4c-9.3,12.4-3.3,24.1,9.8,29.4
		c1.3-5.8,2.7-11.4,3.8-17.1c0.8-4.5,2.4-8.3,6.9-10.3c1.1-0.5,2.3-1.2,3.1-2.1c1.7-1.9,3.2-3.9,5-6.1c-1.6-0.8-2.6-1.4-3.6-1.8
		c-1.6-0.6-1.7-1.5-1-2.9c3.8-7.9,7.6-15.8,11.3-23.7c1.4-3,2.9-6.1,4.3-9c-2.4-2.4-5-2.5-7.7-1.9c-6.4,1.3-9.5,6.1-11.7,11.7
		C79.5,61.4,78.4,64.5,77.1,67.8z M367.4,338.8c-10.3,4.7-20.2,9.5-27.6,18c-7,8.1-7.7,17.8-1.6,25.6c7.4,9.5,18,9.5,28.8,9.3
		c0-4.4,0-8.3,0-12.3c-1.3-0.2-2.5-0.3-3.6-0.6c-4.8-1.1-8.3-3.8-9.9-8.6c-1.5-4.8-0.1-8.9,3.2-12.4c2.5-2.7,5.7-4.2,9.2-5.2
		c0.6-0.2,1.4-0.9,1.4-1.4C367.4,347.2,367.4,343.2,367.4,338.8z M148.9,586c0-0.8,0-1.3,0-1.7c-0.7-10.8-1-21.7-2.2-32.5
		c-0.9-8.9-2.3-17.7-4.3-26.4c-3.6-16-14.7-24.3-30-27.7c3.1,2.8,6.6,5.3,9.4,8.5c8.5,9.9,13.2,21.6,14,34.6
		c0.7,10.9,0.6,21.9,0.9,32.8c0.1,4.5,0,9,0,13.7C141.1,586.8,144.9,586.4,148.9,586z M150.4,626.9c0.3,0.2,0.6,0.4,0.9,0.6
		c1.9-1.7,4-3.3,5.5-5.3c3.9-5,5.4-11,5.2-17.2c-0.4-12.3-0.9-24.7-2-37c-0.7-8.9-3-17.6-7.5-25.5c-1.6-2.7-3.7-5.2-5.5-7.7
		C150.6,565.7,151.8,596.2,150.4,626.9z M135.5,588c-0.2-2.5-0.4-4.8-0.4-7c-0.1-10.5,0-21.1-0.1-31.6c-0.1-11.6-2.2-22.8-8-33
		c-2-3.4-4.4-6.6-6.9-10.4c-0.2,1-0.3,1.1-0.2,1.2c3.9,9.2,5,18.9,5.2,28.8c0.3,13.9,0.4,27.9,0.5,41.9c0,4,0,8,0,12.2
		C129.2,589.2,132.2,588.6,135.5,588z M377.2,365.9c0.1-0.2,0.2-0.4,0.3-0.5c0.7,0.3,1.5,0.3,2,0.8c1.7,1.4,2.2,4.1,1.4,6.3
		c-1,2.6-2.9,4.4-5.4,5.4c-2.1,0.8-4.4,1.2-6.6,1.9c0,3.8,0,7.7,0,11.5c5.8,0.1,13.5-3.4,17.9-8.1c7.6-8,6.8-18.1-2-24.6
		c-4.6-3.4-10-4.8-15.8-4.8c0,8.1,0,15.9,0,23.7c3.4,0.2,6.1-0.8,8.5-2.9c2.9-2.6,2.9-5,0.3-7.7
		C377.6,366.5,377.4,366.2,377.2,365.9z M216.1,255.8c6.9,0,13.2-0.5,19.4,0.1c10,1.1,19.1,5.4,28.1,9.7c3.4,1.6,6.9,3.2,10.5,4.4
		c2.9,1,6.2-0.4,7.5-2.7c1.3-2.2,0.8-5.1-1.4-7.4c-1.3-1.3-2.7-2.5-4.2-3.4c-9.8-5.3-20.5-7.9-31.4-9.1
		C234.1,246.3,225.5,251.6,216.1,255.8z M144.7,58.8c-0.7-1-1.1-1.6-1.5-2.2c-2.3-3.7-5.6-5.2-8.9-4.2c-4.4,1.4-6,5.8-3.9,10.7
		c3.1,7.2,8.9,11.9,15.2,16.6c3.3-2.9,6.9-5.5,9.7-8.8c2.4-2.8,4.5-6.1,5.8-9.6c1.6-4.2-0.7-8.7-4.5-10.2c-3.9-1.6-7.8,0-10.1,4.2
		C145.9,56.3,145.5,57.3,144.7,58.8z M358.3,455.1c-2.9,0-5.6,0.2-8.3,0c-2.3-0.2-3.2,0.9-3.5,2.9c-0.1,0.7-0.2,1.4-0.2,2.1
		c-0.1,7.8-0.1,15.7-0.1,23.5c0,4,0,8.1,0.2,12.1c0.2,3.7,1.9,5.4,5.4,5.5c5.7,0.3,6.4-0.4,6.4-6.1
		C358.3,481.9,358.3,468.7,358.3,455.1z M100.3,494.1c1.8,0.2,4.3,0.5,7.3,0.9c-0.9-3.4-1.4-6.5-2.4-9.4
		c-2.4-7.2-6.9-10.6-14.5-10.7c-4.2-0.1-8.7-0.4-12.3,2.4c-5.5,4.3-6.6,10.2-6.3,16.9c2.6-0.3,5.1-0.5,7-0.7
		c0.9-2.8,1.3-5.5,2.5-7.7c3-5.6,9-6.4,13.1-1.6C97,487,98.3,490.4,100.3,494.1z M242.5,363.9c0.1,0.2,0.1,0.5,0.2,0.7
		c6.4,0.7,12.8,1.2,19.1,2.3c4.9,0.8,9.6,2.4,14.4,3.7c7.1,2,9.3-0.4,11.9-6.6c0.5-1.2-0.3-3.1-0.5-4.6c-1.4,0.4-3.2,0.4-4.2,1.2
		c-1.7,1.4-2.8,1.3-4.2-0.2c-4.1-4.3-8.8-4.9-14-2.2c-5.5,2.9-11.4,4.2-17.5,4.6C245.9,362.8,244.2,363.5,242.5,363.9z M367.2,377.4
		c0-7.8,0-15.4,0-23.6c-2.6,1.2-5,2.1-7.1,3.4c-4.1,2.6-6.3,7.7-5.3,11.6C356.2,374.2,361.1,377.7,367.2,377.4z M89.3,84.4
		c9.8-22.7,19.4-45.2,29.3-68.2c-0.7,0.4-1.5,0.6-1.8,1.1c-0.9,1.6-1.7,3.2-2.5,4.9c-6.3,13.4-12.6,26.9-19,40.3
		c-3.2,6.7-6.4,13.3-9.6,20.1C87,83.2,88,83.7,89.3,84.4z M390.3,634.5c0-1.8,0-3.4,0-5.1c0-4.4,0.1-8.9-0.1-13.3
		c-0.1-3.1-1.4-4.7-3.8-4.8c-2.6-0.1-4,0.9-4.3,4.2c-0.3,4.2-0.3,8.5-0.3,12.8c0,2.1,0,4.2,0,6.2
		C384.9,634.5,387.5,634.5,390.3,634.5z M297.6,295.4c2.1-3,4.4-6.2,6.5-9.3c-3.5-3.6-7.3-5.4-12-4.8c-0.7,0.1-1.7,0.4-2,0.9
		c-1.2,2.3-2.1,4.8-2.9,6.6C290.9,291.1,294.1,293.1,297.6,295.4z M97.5,493.5c-0.5-3.2-1.7-6-4-8.3c-3.3-3.3-6.8-3.1-9.8,0.5
		c-1.8,2.2-2.3,4.9-2.4,7.8C86.7,493.5,92,493.5,97.5,493.5z M304.8,284.2c2-2.8,2.6-4.9,2.6-8.4c0-3.9-2.3-5.5-6.1-4.2
		c-4,1.4-6.8,4.3-9.3,7.7C298.8,280.2,298.8,280.2,304.8,284.2z M367.4,326.7c0-2.2,0.2-4.4-0.1-6.5c-0.2-1.4-1-2.8-1.9-3.9
		c-1.6-1.9-4.5-2.2-6.5-1c-1.9,1.2-2.5,3.2-1.5,5.9C358.9,325.5,362.4,327.5,367.4,326.7z M369.2,335.9c6.6-1.4,14.6-8.8,15.3-14.1
		c-1.2,0.5-2.4,0.9-3.5,1.4c-3.6,1.6-7.1,3.3-10.7,5c-0.5,0.2-1,0.8-1,1.3C369.1,331.6,369.2,333.7,369.2,335.9z M287.4,357
		c-2.1-4.5-1.9-9.1,0.7-13.6c-5.8-0.6-7.3,0.3-7.3,4.9c0,3.6,0.7,7.1,1.2,10.7C283.9,358.2,285.5,357.6,287.4,357z M73.7,116.1
		c3.3-4.5,6.3-8.5,9.2-12.5c0.4-0.6,0.4-2.4,0.3-2.4c-1.8-0.5-3.6-1.1-5.4-1c-0.6,0-1.4,1.9-1.6,3.1
		C75.2,107.2,74.5,111.3,73.7,116.1z M120.2,15.2c1.7-2.9,3.4-5.5,4.9-8.3c0.7-1.3,0.7-2.8-0.8-3.8c-1.5-1-2.9-0.3-3.7,0.9
		c-1.1,1.4-2.2,3-2.6,4.7c-0.4,1.8-0.1,3.8-0.1,5.8C118.5,14.6,119.1,14.8,120.2,15.2z M291,303.5c1.9-2.6,3.4-4.7,5.1-6.9
		c-2.7-1.8-4.8-4.7-8.3-5.3c-0.3,0.1-0.5,0.3-0.8,0.4C288.2,295.6,289.5,299.4,291,303.5z M157.4,287.9c4.2,2.4,6.4,1.6,7.2-2.4
		c0.5-2.4,0.6-4.9,0.8-7.3c-0.2-0.1-0.5-0.2-0.7-0.3C162.3,281.2,159.9,284.5,157.4,287.9z M91,589.6c0,3.1-0.1,6,0.1,8.9
		c0,0.7,1.2,1.9,1.6,1.7c0.9-0.3,2.2-1.1,2.3-1.8c0.2-2.9,0.1-5.9,0.1-8.8C93.4,589.6,92.2,589.6,91,589.6z M354.5,552.3
		c-0.2,0.3-0.3,0.6-0.5,1c10.3,5.1,20.7,10.2,31,15.3c0.1-0.2,0.2-0.5,0.3-0.7C375.1,562.6,364.8,557.4,354.5,552.3z M292.4,215.5
		c-2.6-2.1-5.2-3.4-8.4-2.8c-0.6,0.1-1.4,0.5-1.7,1c-0.2,0.3,0.4,1.1,0.7,1.6C285.1,217.5,288.7,217.7,292.4,215.5z M387.2,569.5
		c-0.2,0-0.3,0-0.5,0c0,7.4,0,14.7,0,22.1c0.2,0,0.3,0,0.5,0C387.2,584.3,387.2,576.9,387.2,569.5z"/>
	<path class="st0" d="M60.3,70.8c0-6.7,0-13.7,0-21.1c-7,2.5-13.8,4.9-20.5,7.4c-2.1,0.8-4.8,1.1-5.9,2.6c-1,1.4-0.4,4.1-0.4,6.2
		c-0.1,6.8-0.2,13.6-0.4,20.5c-0.1,3.8-3.2,6.9-7,7.1c-3.4,0.2-6.1-2.1-6.6-5.6c-0.7-4.7,5-8.9,9.7-7.2c0.7,0.2,1.3,0.6,2.5,1.1
		c0-3.8,0-7.4,0-10.9c0-7.5,0.1-15.1,0-22.6c0-1.6,0.3-2.5,2.1-3.1c9-3,17.9-6.2,26.9-9.3c0.3-0.1,0.7-0.2,1.4-0.4
		c0.1,0.9,0.2,1.5,0.2,2.2c0.1,12.5,0.1,25.1,0.2,37.6c0,4-2.2,7.3-5.5,8.3c-3.5,1.1-7.1-0.8-8.1-4.3c-1-3.7,1.4-7.7,5.2-8.5
		C56,70.5,58.1,70.8,60.3,70.8z M60.3,37.8c-8.8,3-17.2,5.9-25.6,8.9c-0.5,0.2-1.2,0.9-1.2,1.4c-0.1,3.1-0.1,6.1-0.1,9.4
		c8.8-3.2,17.3-6.3,25.8-9.5c0.5-0.2,0.9-1.2,1-1.8C60.4,43.6,60.3,40.9,60.3,37.8z M56.3,72.2c-3.1,0-6.1,2.6-6.1,5.2
		c0,2.8,2.1,4.9,4.7,4.8c2.9-0.1,5.7-3.3,5.8-6.5C60.7,73.5,59.1,72.2,56.3,72.2z M26.8,82c-3,0-5.7,2.4-5.6,5.2
		c0,2.4,2.2,4.5,4.6,4.5c2.9,0,5.6-2.7,5.6-5.6C31.4,83.8,29.5,82,26.8,82z"/>
	<path class="st0" d="M356.6,209.1c-0.1-1.2-0.2-2-0.2-2.7c0-7.2,0.1-14.4-0.1-21.7c0-1.9-0.7-4-1.6-5.8c-1.2-2.6-2.9-4.9-4.4-7.3
		c-0.3-0.5-0.5-1.1-0.7-1.6c0.2-0.2,0.4-0.3,0.6-0.5c0.5,0.5,1.2,0.9,1.6,1.4c1.8,2.7,3.5,5.5,5.1,8.3c0.5,0.9,0.9,2,0.9,3.1
		c0.1,7.9,0,15.9,0,24.3c2.7-1.2,5.1-2.2,7.5-3.2c6.8-3,6.8-3,6.8-10.3c0-1.5,0.2-3.1,0-4.5c-1.4-7.2,2.4-12.6,6.4-17.9
		c0.3-0.4,1-0.4,1.5-0.6c0,0.6,0.2,1.3-0.1,1.7c-1.6,2.5-3.4,4.8-4.9,7.3c-0.7,1.2-1.2,2.6-1.3,3.9c-0.2,5.5-0.2,10.9-0.1,16.4
		c0,1.4-0.3,2.3-1.7,2.9C366.9,204.5,362,206.7,356.6,209.1z"/>
	<path class="st0" d="M355.6,145.3c-1.2-2.7-2.5-5.5-3.8-8.5c-1.4,3-2.7,5.8-4.1,8.7c-2-1.5-7-16.7-5.8-18.6c1.1,2.7,2,5.1,2.9,7.4
		c0.9,2.4,1.7,4.7,2.6,7.4c1.5-3.1,2.8-5.9,4.1-8.7c0.2,0,0.5,0,0.7,0c1.2,2.9,2.5,5.8,3.8,8.8c2.2-4.5,4.3-8.8,6.4-13.1
		c0.3,0,0.5,0.1,0.8,0.1c0.1,0.7,0.4,1.4,0.2,1.9c-2.2,4.8-4.6,9.5-6.9,14.2C356.2,145.2,355.9,145.2,355.6,145.3z"/>
	<path class="st0" d="M376.5,145.3c-0.4-0.8-0.9-1.6-1.3-2.4c-0.7-1.2-0.2-3.3-2.5-3c-2.4,0.3-5.5-1.2-6.7,2.6c-0.3,1-1,1.9-1.7,3.2
		c-0.9-2.1,4.2-14.2,6.9-18C372.8,129,377.5,142.8,376.5,145.3z M371.3,131.1c-1.1,2.4-2.1,4.4-3.1,6.6c1.8,0,3.3,0,5.1,0
		C372.7,135.6,372.1,133.6,371.3,131.1z"/>
	<path class="st0" d="M389.5,159.1c0.9,1.2,1.9,2.3,2.7,3.6c0.3,0.5,0.1,1.2,0.2,1.8c-0.5-0.2-1.2-0.2-1.6-0.6
		c-0.9-1-1.5-2.2-2.5-3.2c-0.8-0.7-1.8-1.2-3.2-2.1c0,2.1,0.1,3.3,0,4.6c0,0.5-0.6,0.9-0.9,1.3c-0.4-0.4-1.1-0.8-1.1-1.2
		c0-3.6,0-7.1,0.1-10.7c0-0.5,0.7-1.2,1.2-1.4c2.6-1,5.3-0.2,6.6,1.7C392.2,154.8,391.8,156.3,389.5,159.1z M384.7,157.5
		c2.4-0.2,4.6,0.7,5.1-2.1c0.2-1.5-1.4-3-3.2-2.7C383.3,153.2,385.7,155.7,384.7,157.5z"/>
	<path class="st0" d="M374.6,153.5c0,1.3,0,2.2,0,3.4c1.3,0,2.7-0.1,4,0c0.4,0,0.8,0.6,1.1,0.9c-0.4,0.3-0.8,0.8-1.2,0.9
		c-1.2,0.1-2.5,0-3.9,0c0,1.3,0,2.4,0,3.8c1.5,0,3.1-0.1,4.6,0c0.6,0.1,1.2,0.6,1.8,0.9c-0.6,0.3-1.2,0.8-1.9,0.9
		c-1.4,0.1-2.9,0-4.3,0.1c-1.7,0.1-2.3-0.7-2.3-2.3c0-3-0.1-6,0-9c0-0.6,0.7-1.5,1.2-1.5c1.7-0.3,3.5-0.4,5.2-0.3
		c0.6,0,1.2,0.7,1.7,1.1c-0.6,0.3-1.1,0.9-1.7,0.9C377.7,153.6,376.3,153.5,374.6,153.5z"/>
	<path class="st0" d="M339.3,152.6c3.2,0.4,6.1-0.9,8.9,0.3c0,0.4,0,0.7,0.1,1.1c-2.3,0.2-4.6,0.4-7,0.6c0,1,0,1.8,0,3
		c1.3,0,2.5-0.1,3.7,0c0.5,0.1,0.9,0.6,1.4,0.9c-0.5,0.3-0.9,0.8-1.4,0.9c-1.2,0.1-2.3,0-3.7,0c0,1.5,0.1,2.8,0,4
		c-0.1,0.6-0.6,1.1-0.9,1.6c-0.3-0.5-0.9-1.1-0.9-1.6C339.3,159.9,339.3,156.4,339.3,152.6z"/>
	<path class="st0" d="M361,152.3c3.1-0.1,6-0.3,8.9-0.3c0.4,0,0.8,0.5,1.2,0.8c-0.4,0.3-0.7,0.8-1.2,0.9c-0.8,0.2-1.6,0.1-2.6,0.2
		c0,2.7,0,5.3,0,8c0,0.6,0.1,1.3-0.1,1.9c-0.1,0.4-0.6,0.8-0.9,1.2c-0.3-0.4-0.9-0.9-0.9-1.3c-0.1-2.7,0-5.4,0-8.1
		c0-0.5,0-0.9,0-1.2C364.1,153.1,361.7,155.1,361,152.3z"/>
	<path class="st0" d="M357.8,162.9c1.8,0,3.3-0.1,4.8,0c0.5,0,0.9,0.6,1.4,0.9c-0.4,0.3-0.8,0.8-1.2,0.8c-1.9,0.1-3.8,0.2-5.7,0
		c-0.4,0-1.2-0.9-1.2-1.3c-0.1-3.3-0.1-6.6,0.1-9.9c0-0.4,0.6-0.8,1-1.3c0.3,0.5,0.8,1,0.8,1.5C357.9,156.7,357.8,159.8,357.8,162.9
		z"/>
	<path class="st0" d="M384.1,145c-0.5-5.6-0.1-11.3-0.3-16.9c0.3-0.1,0.6-0.1,0.9-0.2c0.2,0.5,0.7,1.1,0.7,1.6c0.1,4.9,0,9.8,0,14.7
		c0,0.3-0.2,0.5-0.3,0.8C384.8,145,384.5,145,384.1,145z"/>
	<path class="st0" d="M352.1,158.6c0,1.7,0.1,3.3,0,5c0,0.5-0.6,0.9-0.9,1.4c-0.3-0.4-0.9-0.9-0.9-1.3c-0.1-3.4-0.1-6.8,0-10.2
		c0-0.4,0.5-0.8,0.8-1.2c0.3,0.4,0.9,0.7,1,1.1C352.2,155.1,352.1,156.9,352.1,158.6C352.1,158.6,352.1,158.6,352.1,158.6z"/>
	<path class="st0" d="M252.3,290.6c-9.5,1.3-16.6-3.5-23.2-9.4c-1.2-1.1-2.4-1.8-4-1c-0.1,0.1-0.3,0.1-0.5,0.1
		c-1.4-0.3-2.7-0.7-4.1-1c0.9-0.9,1.6-2.2,2.7-2.7c7.8-4.1,16-6.7,25-5.7c5.9,0.7,11.2,2.4,14.1,8.1c1.4,2.7,1.7,5.6,0.7,8.5
		c-0.6,1.8-1.8,2.7-3.7,2.8C257.1,290.4,254.7,290.5,252.3,290.6z M223,278.9c0.4-0.1,0.7-0.1,1.1-0.2c7.1-1.6,14.2-3.2,21.6-2.6
		c5.8,0.5,11,2.2,14,7.9c0.6,1.1,1,2.3,1.6,3.7c1.3-2.8,1-5.2-0.1-7.6c-1.5-3.3-4.2-5.3-7.6-6.4C242.6,270.1,232.7,273.5,223,278.9z
		 M229.3,279.2c4.5,3.7,8.3,7.6,13.7,8.9c0.8,0.2,2.3-0.2,2.8-0.8c2.1-2.6,2.7-5.7,2.4-9C241.8,276.6,235.9,278,229.3,279.2z
		 M247.6,288.6c3.7,0,7.8,0,12.1,0c-1.8-6.1-5.1-9.5-9.3-10C249.5,282,248.5,285.3,247.6,288.6z"/>
	<path class="st0" d="M352,58.4c0,3.6-2.7,6.4-6.3,6.4c-3.8,0-6.8-2.9-6.9-6.7c0-3.5,2.8-6.3,6.3-6.4C349,51.7,351.9,54.6,352,58.4z
		 M340.7,58.1c0,2.8,2.2,5,4.9,5c2.6,0,4.6-2,4.6-4.7c0-2.7-2.1-4.8-4.9-4.8C342.5,53.6,340.7,55.4,340.7,58.1z"/>
	<path class="st0" d="M392.2,58.6c0,3.7-2.8,6.4-6.5,6.3c-3.5-0.1-6.3-3.1-6.3-6.7c0-3.4,3.1-6.5,6.5-6.5
		C389.5,51.8,392.2,54.7,392.2,58.6z M381.2,58c-0.1,2.9,1.7,4.9,4.4,5.1c2.5,0.1,4.8-2,4.9-4.4c0.1-2.7-1.9-5-4.6-5.1
		C383.3,53.5,381.3,55.4,381.2,58z"/>
	<path class="st0" d="M371.8,58.3c0,3.9-2.4,6.4-6.1,6.4c-3.7,0-6.9-3.2-6.8-6.8c0.1-3.2,3.1-6.2,6.3-6.2
		C368.9,51.7,371.8,54.5,371.8,58.3z M370.2,58.3c0-2.6-2.2-4.7-4.9-4.7c-2.6,0-4.7,2.1-4.6,4.7c0.1,2.6,2.3,4.8,4.9,4.8
		C368.1,63.1,370.2,60.9,370.2,58.3z"/>
	<path class="st0" d="M280.7,70c5.8,11.9-4.9,21.8-14.6,20.5c-3.1,6.5-14.7,8.1-19.2,1.3c-5.5,6.5-15.5,5.9-20.7-1.4
		C221,91.2,217,89,213.9,85c-3.5-4.6-3.4-9.7-0.9-14.7c-5-4.2-7.5-9.3-6.6-15.9c0.1-1,0.5-2.2,1.1-2.8c1.7-1.6,1.7-3.3,1.2-5.5
		c-2-8.4,4.2-20.6,16.1-19.6c0.5,0,0.9,0,1.4,0c3.4-10.4,14.9-12.2,20.7-3.8c2.8-4.1,6.8-5.4,11.3-4.6c5.4,0.9,9.7,3.8,11.9,9.1
		c0.5,1.3,1.1,2,2.6,2.4c7.2,1.9,14,9.2,9.9,19.1C288.9,51.8,288.8,63.5,280.7,70z M231.6,53.1c-1,3.5-3,6-6.3,7.1c-0.9,0.3-2,0-3,0
		c0.8-0.5,1.4-1.2,2.3-1.5c2.7-1,4.3-2.8,5.2-5.5c0.7-2.1-1-3.1-2.1-4.4c-0.3-0.4-0.3-1-0.4-1.6c0.5,0.1,1.1,0.2,1.6,0.4
		c0.3,0.2,0.6,0.5,0.8,0.8c4.3,5.9,10.2,5,15.4,3.2c0.6-0.2,1.2-1.1,1.3-1.6c0.1-3.9,0.1-7.8,0.1-12.2c-4.7,4.5-9.9,5.6-12.6,2.5
		c1.4,0,2.3-0.1,3.3,0c2.9,0.2,5.6-0.5,7.1-3c2.6-4.3,2.6-9.2,1.1-13.7c-1.2-3.5-4.9-4.9-8.9-4.4c-3.9,0.5-7,3.5-8,7.7
		c2.7,1.9,3.6,3.6,2.5,5.4c-0.6,0.9-1.9,1.5-2.9,1.9c-0.3,0.1-1.3-0.5-1.4-1c-0.5-1.6-0.8-3.2-1.1-4.9c-5.7-0.6-9.9,1.3-12.7,6.1
		c-2.6,4.5-3.3,9.2-1.3,14.2c0.9-0.2,1.5-0.4,2.1-0.5c3-0.8,5.5,0,7.6,2.1c0.4,0.3,0.4,1,0.6,1.5c-0.5-0.1-1.1,0-1.6-0.2
		c-0.4-0.2-0.7-0.6-1.1-0.9c-2.8-1.9-5.7-1-8.4,0.2c-2.1,0.9-2.7,3.1-2.7,5.2c0,4.2,1.5,7.9,4.3,11c0.6,0.6,1.3,1,1.9,1.5
		c1.2-1,2-1.9,3.1-2.6c1.8-1.2,3.8-2.1,5.8-0.9c1.1,0.6,2.3,2,2.3,3c0,1.1-1.2,2.8-2.2,3.1c-2.1,0.5-4.5,0.6-6.7,0.3
		c-1.5-0.2-1.9,0.2-2.4,1.4c-3.3,7.9,3.2,16.7,11.8,15.9c-0.1-0.8-0.2-1.5-0.2-2.3c-0.2-4.7,0.7-5.6,5.4-5.7c0.3,0,0.6,0,1,0
		c3.2-0.1,5.6-1.6,6.4-4c0.8-2.5-0.3-5.6-2.6-7.4c-0.5-0.4-0.9-0.8-1.4-1.3c0.1-0.2,0.2-0.4,0.3-0.6c0.6,0.1,1.3,0.1,1.8,0.3
		c2.4,1.3,4.3,5.3,3.8,8.2c-0.5,3.2-2.7,5.7-6,6.2c-2,0.3-4.1,0.3-6.1,0.4c-1.6,3.6-0.9,7.4,1.9,9.6c3.8,2.9,8,3.2,12.4,1.5
		c2.4-1,3.6-2.9,3.6-5.6c0-5,0.2-10,0.3-15c0.1-6.6,0-13.1,0-19.8C241.4,54.9,236.6,55.5,231.6,53.1z M260.8,81.9
		c-0.2,0.1-0.5,0.1-0.7,0.2c-0.2-0.8-0.6-1.6-0.7-2.5c-0.6-4.9-5.5-8.3-10.2-6.9c-0.5,0.2-1.2,1-1.3,1.6c-0.1,4.6-0.1,9.2,0,13.8
		c0.1,2.8,1.4,4.8,4.1,5.8c4.8,1.8,11.8,0.3,13.4-6.7c0.2-0.8,0.6-1.5,0.9-2.2c0.2,0,0.5,0.1,0.7,0.1c0,1.2,0,2.4,0,3.7
		c5.3,0.1,9.2-2.1,11.9-6.4c2.4-3.7,2.4-7.6,0.3-11.5c-6.2,2.3-8.7,1.3-10.3-4.1c-3.4,0.3-6.4-0.6-8.9-2.9c-0.4-0.3-0.5-1-0.7-1.6
		c0.6,0.1,1.2,0.1,1.8,0.3c0.3,0.1,0.5,0.4,0.7,0.6c3.3,2.5,5.9,2.3,9.1-0.5c0.5-0.4,1.3-0.4,2-0.7c0.1,0.2,0.2,0.4,0.3,0.7
		c-0.5,0.7-1.3,1.2-1.5,2c-0.3,1.1-0.7,2.4-0.3,3.5c0.7,2,2.7,2.8,4.9,1.9c5.3-2.1,8.3-6.1,9.1-11.8c0.9-6.6-2.8-10-9.7-8.9
		c-2,0.3-3.8,1.5-5.7,2.3c-0.4,0.2-1,0-1.5,0c0.2-0.5,0.3-1.2,0.7-1.5c2.8-1.8,5.8-2.9,9.2-2.7c3.1,0.2,3.6-0.3,3.9-3.4
		c0.1-1,0.1-2.1,0-3.1c-0.5-4.9-6-10.1-10.6-9.9c0,0.7,0.1,1.4,0.1,2.1c0.1,3.8-2.3,7.4-5.5,8.4c-2.8,0.9-5.6-0.1-7.1-2.4
		c-1.8-2.9-1.6-8.9,0.4-11.1c0.2-0.2,0.5-0.3,1.2-0.6c-0.1,0.9-0.1,1.4-0.2,2c-0.2,2.2-0.7,4.3-0.7,6.5c0,1.8,0.9,3.4,2.9,3.9
		c2,0.6,4,0.2,5.1-1.5c1-1.4,1.8-3.3,1.9-5c0.5-8.4-6.5-14.8-15-14c-4,0.4-6.8,3.1-6.9,7.1c-0.1,6.9,0.1,13.8,0.2,20.7
		c0,0.8,0,1.5,0,2.4c5.6-3,9-3,11.7,0c1.2,1.4,2.3,2.9,0.9,5.6c-0.6-1.5-1-2.4-1.4-3.2c-1.1-2.3-3.5-3.4-6.2-2.9
		c-2.1,0.4-5,2.7-5,4.2c-0.1,5.8,0,11.6,0,17.5c5-1.1,9,0.1,11.7,4.4C260.9,77.4,261.8,79.6,260.8,81.9z M216.2,69.3
		c0,0.3,0.1,0.6,0.1,0.8c1.9-0.1,3.9-0.1,5.7-0.4c0.6-0.1,1.1-1.2,1.6-1.9c-0.7-0.5-1.4-1.3-2.1-1.4
		C219.1,66.2,217.5,67.6,216.2,69.3z M228.5,28.8c-0.4,0.1-0.9,0.2-1.3,0.4c0.3,1.1,0.6,2.3,0.9,3.4c0.4-0.2,1.1-0.5,1.1-0.6
		C229,30.9,228.7,29.8,228.5,28.8z"/>
	<path class="st0" d="M126.1,315.3c-1.9-4.9-6.7-6.2-10.4-8.8c-2-1.4-3.9-3.4-4.9-5.6c-4.7-10.5-5.6-21.5-2.9-32.7
		c0.3-1.4,1.1-2.8,1.8-4.1c4-7,11.7-8.3,17.3-2.5c6,6.1,9.9,13.2,8,22.2c-0.8,3.7,0.4,6.8,2.8,9.6c2.1,2.4,3.3,5.1,2.9,8.5
		c-0.4,3.1-2.3,4.6-5,3.2c-3.4-1.7-6.9-2.1-10.5-2.4c-3.8-0.3-6.5-2.6-7.4-6.3c-2.2-10,2.8-18.9,13.9-18.4c0.6,0,1.2-0.1,1.8-0.1
		c0.1-5.8-5.8-15.2-10.9-17.5c-3.3-1.5-7.7-0.4-10.1,2.5c-2.6,3-3.8,6.7-4,10.5c-0.5,7.4-0.4,14.9,1.8,22.1
		c1.6,5.3,4.4,9.3,9.6,11.7c2.2,1,4.1,2.7,5.9,4.3c0.8,0.8,1,2.2,1.5,3.3C126.8,314.9,126.4,315.1,126.1,315.3z M133.9,279.6
		c-9.9-1.4-16.4,5.1-14.8,14.8c0.8,4.5,2.6,6.5,7.2,6.7c3.5,0.2,6.7,0.6,9.8,2.4c1.8,1,2.9,0.2,3.1-1.8c0.1-1,0.1-2.2-0.3-3
		c-0.9-1.9-2-3.8-3.2-5.4c-2.1-2.8-3-5.8-2.2-9.4C133.7,282.4,133.7,281,133.9,279.6z"/>
	<path class="st0" d="M385.4,254.9c2.9,1.1,5.7,1.9,8.3,3.2c5.6,2.9,9,7.4,8.9,14c0,2.8-1,3.8-3.7,3.8c-12,0-23.9,0-35.9-0.1
		c-2.8,0-3.6-0.9-3.7-3.8c-0.3-5.5,1.9-9.8,6.5-12.6c2.9-1.8,6.2-3,9.3-4.5c-3-1.6-5.1-4.3-6-8.1c-1.5-6.2,0.7-12.7,5.6-15.7
		c3.7-2.3,7.6-2.5,11.5-0.4c4.4,2.4,6.1,6.5,6.2,11.3C392.5,247.6,390.4,252,385.4,254.9z M380.8,274.1
		C380.8,274.1,380.8,274.1,380.8,274.1c5.9,0,11.9,0,17.8,0.1c1.8,0,2.5-0.7,2.4-2.3c-0.2-3.4-1.2-6.5-3.7-9
		c-7.8-7.8-23.8-8.4-32.1-1.1c-2.8,2.5-4.3,5.6-4.5,9.4c-0.1,2,0.4,3.2,2.9,3.1C369.4,274,375.1,274.1,380.8,274.1z M390.7,242.5
		c0-0.6,0-1.1,0-1.7c-0.9-8.3-9.1-12.5-15.6-7.9c-5.3,3.7-6.5,13.2-2.2,18.1c2.5,2.9,5.7,4.2,9.6,3.2
		C387.3,252.9,390.7,248.2,390.7,242.5z"/>
	<path class="st0" d="M395,237.8c0-4.3,2.7-6.1,6.7-4.5c0.6,0.3,1.6,0.1,2.3-0.2c3.2-1.4,5.7-0.1,6.2,3.3c0.7,4.4-2.3,9.3-6.6,10.6
		c-0.8,0.2-1.8,0.2-2.5,0C397.8,245.6,395,241.3,395,237.8z M402.5,235.9c-0.8-0.5-1.4-1.2-2.2-1.4c-0.8-0.2-1.9-0.2-2.6,0.2
		c-1.4,0.9-1.5,3.6-0.4,5.9c1.2,2.6,4.2,5.1,5.7,4.8c2.3-0.5,5.7-4.3,5.7-6.8c0-1.4-0.4-3.3-1.4-4.1c-0.6-0.5-2.6,0.5-3.9,0.9
		C403.1,235.6,402.8,235.8,402.5,235.9z"/>
</g>
</svg>
