<?xml version="1.0" encoding="utf-8"?>
<!-- Generator: Adobe Illustrator 26.3.1, SVG Export Plug-In . SVG Version: 6.00 Build 0)  -->
<svg version="1.1" id="Capa_1" xmlns="http://www.w3.org/2000/svg" xmlns:xlink="http://www.w3.org/1999/xlink" x="0px" y="0px"
	 viewBox="0 0 100 100" style="enable-background:new 0 0 100 100;" xml:space="preserve">
<g>
	<path d="M42.7,91.3c-4,0.1-8-0.4-12-1c-2.3-0.3-4.2-1.3-5.9-2.8c-4.9-4.3-8.6-9.5-11.9-15.1C7.7,63.5,4.2,54,2.7,43.9
		c-1-6.5-1.6-13,0.1-19.4c1.2-4.6,3.4-8.6,7.1-11.6c7.5-6,16.8-5.5,22.9,4.2c1.6,2.6,2.5,5.4,2.8,8.4c0.1,1.3-0.1,2.4-0.8,3.5
		c-2.5,3.9-6.1,6.2-10.6,7.1c-1.8,0.4-2,0.7-1.4,2.4c0.4,1.2,1.2,2.1,2,2.9c2,1.9,4.1,3.7,6.2,5.6c1.2,1.1,2.3,2.2,3.4,3.3
		c0.6,0.6,0.8,0.5,1.1-0.2c1-2.3,2.4-4.3,4.4-5.9c3.8-3.1,8.2-3.9,12.9-3.4c0.9,0.1,1.1-0.2,1.1-1c-0.3-10.8,8.7-19.6,18.3-21
		c7.7-1.2,14.9,0.3,20.5,6.2c3.3,3.4,5,7.6,5.8,12.2c0.9,5.9,0.6,11.8-1.7,17.4c-2.5,6.2-7.1,10.5-13.2,13.2
		c-0.6,0.3-1.1,0.6-1.4,1.3c-5.2,11.3-14.2,17.9-26.1,20.7C51.7,90.9,47.2,91.4,42.7,91.3z M42.7,83.5c3.6,0.1,7.2-0.2,10.8-1
		c10.2-2.2,17.9-7.6,22.1-17.5c0.9-2,2.1-3.3,4.2-4c5.3-2,9-5.6,10.6-11.1c1.2-4.4,1.3-8.8,0.2-13.2c-1.2-5-4.4-8.3-9.3-9.7
		c-2-0.6-4.1-0.7-6.3-0.6c-6.3,0.2-12.3,5.4-13.2,11.6c-0.3,2.3,0,4.5,0.5,6.7c0.4,1.7,0.2,3.1-1,4.3c-1.3,1.2-2.8,1.2-4.3,0.7
		c-2.2-0.7-4.4-1.2-6.8-1.1c-3.9,0.1-6.5,1.9-7.9,5.6c-0.8,2.3-1,4.6-1.1,7c-0.1,2-1.1,3.5-3,3.9c-1.7,0.4-3.4-0.4-4.3-2.1
		c-2.4-4.8-5.9-8.5-9.9-12c-2.6-2.2-5.3-4.4-7.2-7.3c-2.6-4-2.7-9-0.2-12.6c1-1.5,2.3-2.4,4.3-2.4c2.3,0,4.5-0.7,6.2-2.4
		c0.6-0.6,0.8-1.1,0.6-1.9c-0.5-1.9-1.4-3.5-2.6-5c-2.8-3.3-5.8-3.4-9.4-1.1c-0.6,0.4-1.1,0.9-1.6,1.4c-2.1,2.1-3.2,4.7-3.8,7.6
		c-1.1,4.9-0.6,9.7,0.1,14.6c1.6,10.6,5.4,20.4,11.1,29.5c2.4,3.8,4.9,7.4,8.4,10.3c0.6,0.5,1.3,0.9,2.1,1
		C35.4,83.2,39.1,83.6,42.7,83.5z"/>
</g>
</svg>
