<?xml version="1.0" encoding="utf-8"?>
<!-- Generator: Adobe Illustrator 26.3.1, SVG Export Plug-In . SVG Version: 6.00 Build 0)  -->
<svg version="1.1" id="Capa_1" xmlns="http://www.w3.org/2000/svg" xmlns:xlink="http://www.w3.org/1999/xlink" x="0px" y="0px"
	 viewBox="0 0 100 100" style="enable-background:new 0 0 100 100;" xml:space="preserve">
<g>
	<path d="M49.8,10.6c6.4-0.1,12.7-0.2,19.1,0.5c2.8,0.3,5.5,0.8,8.1,1.6c6.2,1.9,9.4,6.3,10.8,12.4c1,4.1,1.3,8.4,1.5,12.6
		c0.3,8.2,0.3,16.4,0,24.6c-0.2,4.6-0.6,9.1-1.7,13.6c-1.6,6.2-5.5,10-11.7,11.6c-4.2,1.1-8.6,1.5-12.9,1.7
		c-8.6,0.4-17.3,0.4-25.9,0c-4.5-0.2-9-0.6-13.4-1.8c-6.4-1.8-10-6.1-11.5-12.4c-0.9-4-1.3-8.1-1.5-12.2c-0.4-8.5-0.3-17.1,0-25.6
		c0.2-4.6,0.6-9.1,1.8-13.5c1.8-6.4,6.1-10,12.4-11.4c4-0.9,8.1-1.3,12.2-1.5C41.4,10.5,45.6,10.6,49.8,10.6z M51.4,18.5
		c-4.1,0-7-0.1-9.8,0c-4.3,0.1-8.5,0.1-12.8,0.7c-5.7,0.9-8.4,3.7-9.4,9.4c-0.6,3.6-0.6,7.2-0.7,10.8c-0.1,7-0.1,13.9,0,20.9
		c0.1,3.6,0.1,7.2,0.7,10.8c0.9,5.8,3.7,8.5,9.5,9.5c3.7,0.6,7.4,0.6,11,0.7c6.2,0.1,12.3,0.1,18.5,0c4.3-0.1,8.6-0.1,12.9-0.7
		c5.7-0.9,8.5-3.6,9.4-9.4c0.6-3.7,0.6-7.4,0.7-11.2c0.1-6.7,0.1-13.4,0-20.1c-0.1-3.7-0.1-7.5-0.7-11.2c-0.7-4.3-2.6-7.7-7.1-8.9
		c-2.2-0.6-4.4-0.9-6.7-1C61.3,18.5,55.7,18.4,51.4,18.5z"/>
	<path d="M50,30.1c11,0,19.7,8.8,19.7,19.8c0,11-8.9,19.9-19.9,19.8c-11-0.1-19.7-8.9-19.7-19.8C30.3,38.9,39.1,30.1,50,30.1z
		 M38.4,49.7c-0.1,6.5,4.9,11.6,11.4,11.7c6.6,0.1,11.7-4.9,11.8-11.4c0.1-6.5-4.9-11.6-11.4-11.7C43.6,38.2,38.5,43.2,38.4,49.7z"
		/>
	<path d="M73.7,30.2c0,2.2-1.9,4.1-4.1,4.1c-2.2,0-4.1-2-4.1-4.1c0-2.2,1.9-4,4.2-4C71.9,26.2,73.7,28.1,73.7,30.2z"/>
</g>
</svg>
