<?xml version="1.0" encoding="utf-8"?>
<!-- Generator: Adobe Illustrator 26.3.1, SVG Export Plug-In . SVG Version: 6.00 Build 0)  -->
<svg version="1.1" id="Capa_1" xmlns="http://www.w3.org/2000/svg" xmlns:xlink="http://www.w3.org/1999/xlink" x="0px" y="0px"
	 viewBox="0 0 100 100" style="enable-background:new 0 0 100 100;" xml:space="preserve">
<g>
	<path d="M51,93.5c-7.9,0-14.4-1.6-20.6-4.7c-1-0.5-1.9-0.7-3-0.4c-6.2,1.4-12.5,2.8-18.8,4.2c-1.5,0.3-1.6,0.2-1.2-1.2
		c1.6-6,3.2-12.1,4.8-18.1c0.2-0.9,0.1-1.6-0.3-2.4C-1.9,45.2,12.8,13.6,41.4,7.6c24.1-5,48,11.7,51.6,36
		C96.4,66.6,81.8,87.6,59,92.6C56,93.3,53.1,93.6,51,93.5z M18.5,81.9c0.7-0.1,1.1-0.2,1.5-0.3c3-0.7,6-1.4,9.1-2.1
		c0.8-0.2,1.5-0.2,2.3,0.3c7.4,4.7,15.5,6.3,24.1,5.1C74.5,82.3,88,63.9,85,44.8c-3.1-19.9-22.1-33.1-41.8-29.2
		C18.8,20.4,7,48.5,20.6,69.3c0.6,0.9,0.8,1.7,0.5,2.8C20.2,75.3,19.4,78.5,18.5,81.9z"/>
	<path d="M28.6,40.1c-0.1-3.6,1.3-6.5,3.8-9c1.3-1.3,4.4-1.8,6-1c0.6,0.3,1,0.9,1.3,1.5c1.2,2.8,2.3,5.6,3.5,8.3
		c0.3,0.7,0.2,1.5-0.2,2.2c-0.6,1.3-1.6,2.3-2.5,3.3c-0.7,0.8-0.8,1.4-0.2,2.4c3.4,5.7,8.2,9.8,14.3,12.3c1,0.4,1.8,0.3,2.4-0.6
		c1-1.3,2.1-2.5,3.1-3.8c0.7-0.8,1.4-1.1,2.4-0.7c3,1.3,5.9,2.7,8.7,4.2c0.7,0.4,1,0.9,1,1.7c0.1,5.2-3.1,8.2-8.3,9.3
		c-1.9,0.4-3.8,0.1-5.7-0.4C47.5,67.5,39.5,61,33.4,52c-2-2.9-3.8-5.8-4.5-9.3C28.7,41.8,28.7,40.9,28.6,40.1z"/>
</g>
</svg>
