<?xml version="1.0" encoding="utf-8"?>
<!-- Generator: Adobe Illustrator 26.3.1, SVG Export Plug-In . SVG Version: 6.00 Build 0)  -->
<svg version="1.1" id="Capa_1" xmlns="http://www.w3.org/2000/svg" xmlns:xlink="http://www.w3.org/1999/xlink" x="0px" y="0px"
	 viewBox="0 0 100 100" style="enable-background:new 0 0 100 100;" xml:space="preserve">
<g>
	<path d="M13.2,8.4c1.6,0.1,2.8,0.8,3.8,1.9c8.9,8.9,17.8,17.8,26.6,26.7c1.7,1.7,3.5,3.4,5.2,5.2c0.9,0.9,1.4,0.8,2.2,0
		C61.7,31.5,72.4,20.9,83,10.3C84.4,8.8,86,8,88.1,8.6c3.3,1,4.5,4.9,2.3,7.6c-0.4,0.5-0.9,0.9-1.3,1.4c-10.3,10.3-20.7,20.7-31,31
		c-1.4,1.4-1.4,1.4,0,2.8c10.5,10.5,21,21,31.6,31.5c1.5,1.5,2.3,3.1,1.7,5.2c-1,3.3-4.9,4.5-7.6,2.3c-0.5-0.4-0.9-0.8-1.3-1.2
		C72.2,78.9,61.9,68.6,51.6,58.3c-1.8-1.8-1.4-1.8-3.2,0C37.9,68.8,27.5,79.3,17,89.7c-1.5,1.5-3.2,2.3-5.3,1.6
		c-3.1-1-4.3-4.8-2.3-7.4c0.4-0.5,0.8-0.9,1.2-1.3c10.4-10.4,20.8-20.8,31.2-31.2c1.4-1.4,1.4-1.4,0-2.8c-10.5-10.5-21-21-31.6-31.5
		c-1.6-1.6-2.3-3.4-1.5-5.6C9.4,9.6,11.3,8.4,13.2,8.4z"/>
</g>
</svg>
