<?xml version="1.0" encoding="utf-8"?>
<!-- Generator: Adobe Illustrator 26.3.1, SVG Export Plug-In . SVG Version: 6.00 Build 0)  -->
<svg version="1.1" id="Capa_1" xmlns="http://www.w3.org/2000/svg" xmlns:xlink="http://www.w3.org/1999/xlink" x="0px" y="0px"
	 viewBox="0 0 100 100" style="enable-background:new 0 0 100 100;" xml:space="preserve">
<g>
	<path d="M49.9,6.6C74,6.6,93.4,26,93.5,49.9c0,24-19.4,43.4-43.4,43.4C25.9,93.4,6.5,74,6.5,49.9C6.6,26,26,6.6,49.9,6.6z
		 M42.4,67.1c-5.3-0.9-7.7-1.8-10.3-3.5c-7.4-5-8.7-17.3-4.4-24.1c0.9-1.5,1.2-2.7,0.9-4.4c-0.5-2.5-0.5-5,0.6-7.4
		c0.4-0.8,0.9-1.2,1.9-1c2.8,0.5,5.3,1.8,7.7,3.3c1.1,0.7,2,0.8,3.3,0.5c5.3-1.4,10.6-1.4,15.9,0c1.1,0.3,2,0.2,2.9-0.4
		c2.5-1.5,5-2.9,7.9-3.4c0.9-0.2,1.4,0.1,1.8,0.9c0.8,1.6,1,3.4,0.8,5.1c-0.3,2.8-0.5,5.3,1.3,8c2.1,3.1,2.1,7,1.6,10.7
		c-0.9,6.8-4.2,11.7-10.8,14.2c-1.9,0.7-3.9,1.1-6.1,1.3c1,1.7,1.8,3.3,1.9,5.2c0.2,3.4,0.1,6.8,0.1,10.2c0,1.4,0.1,1.5,1.5,1
		C77.9,78,88.3,60.3,84.6,43c-4-18.9-21.7-30.9-40.7-27.7c-18.2,3.1-31.9,20.3-28.7,40.1c2.2,13.6,10.2,22.8,23,27.7
		c2.2,0.9,2.2,0.8,2.2-1.5c0-0.4,0-0.8,0-1.3c0-2.7,0-2.7-2.6-2.3c-4.6,0.7-8.5-1.1-10.4-4.9c-1.2-2.3-2.3-4.8-4.8-6.1
		c-0.8-0.5-0.7-1.4,0.2-1.9c0.4-0.2,0.9-0.3,1.3-0.3c2.1,0.1,3.7,1.2,4.9,2.9c1,1.4,2.1,2.7,3.5,3.8c2.3,1.7,4.8,1.6,7.4,0.7
		c0.4-0.1,0.6-0.4,0.7-0.8C40.9,70,41.5,68.5,42.4,67.1z"/>
</g>
</svg>
