<?xml version="1.0" encoding="utf-8"?>
<!-- Generator: Adobe Illustrator 26.3.1, SVG Export Plug-In . SVG Version: 6.00 Build 0)  -->
<svg version="1.1" id="Capa_1" xmlns="http://www.w3.org/2000/svg" xmlns:xlink="http://www.w3.org/1999/xlink" x="0px" y="0px"
	 viewBox="0 0 100 100" style="enable-background:new 0 0 100 100;" xml:space="preserve">
<g>
	<path d="M98.9,27.8c-0.4,7.9-2.4,15.3-8.3,21c-6.8,6.6-14.9,8.2-23.8,5c-1.3-0.5-2.1-0.3-3,0.7c-7,8-13.7,16.2-20.6,24.4
		c-3.7,4.4-7.4,8.9-11.5,13.1c-4.3,4.4-9.6,5.9-15.6,4.1c-6-1.8-9.7-6-10.7-12.1c-0.9-5.4,0.7-10.2,4.8-14
		c7.4-7.1,15.5-13.4,23.3-20c1.2-1,1.2-1,0.1-2.1C28,42.3,22.4,36.7,16.8,31.1c-0.8-0.8-1.5-1.2-2.6-1.1c-0.7,0.1-1.5,0-2.2,0
		c-1.4,0-2.4-0.5-3.2-1.6c-2.3-3.2-4.6-6.5-6.9-9.7c-1.1-1.5-1-2.9,0.3-4.2c1.3-1.3,2.6-2.7,3.9-3.9c1.3-1.2,2.7-1.4,4.1-0.4
		c3.3,2.3,6.6,4.7,9.9,7.1c1.1,0.8,1.7,2.1,1.5,3.4c-0.4,2.6,0.8,4.4,2.6,6.2c5.4,5.2,10.6,10.5,15.9,15.8c0.9,0.9,1.4,0.9,2.3,0.1
		c1.7-1.6,3.4-3.1,5.3-4.6c0.8-0.7,1-1.3,0.6-2.3c-3.6-9-1.4-18.6,5.7-25.1c4.4-4,9.7-6,15.5-7c4.1-0.7,8.2-0.7,12.1,0.8
		c1.1,0.4,2.1,1,3,1.7c2.2,1.9,2.4,4.4,0.5,6.6c-1.1,1.1-2.2,2.2-3.3,3.3c-2.8,2.8-5.5,5.5-8.3,8.3c-1.2,1.2-1.4,3.5-0.4,4.5
		c1,1,3.4,0.8,4.5-0.3c3.8-3.8,7.5-7.5,11.3-11.3c2.5-2.5,5.2-2.3,7.2,0.6C98.4,20.8,98.9,24.3,98.9,27.8z M13.7,81.4
		c0,3,1.6,5.5,4.2,6.6c2.7,1.1,5.7,0.5,7.8-1.6c0.8-0.8,1.5-1.6,2.2-2.4c10-11.3,19.4-23.2,29.4-34.6c0.5-0.5,0.3-0.9-0.1-1.3
		c-0.9-0.9-1.9-1.7-2.7-2.7c-0.8-1.1-1.4-0.9-2.3-0.1c-6.7,6-13.8,11.7-20.7,17.5c-5.2,4.4-10.6,8.7-15.5,13.4
		C14.4,77.7,13.6,79.4,13.7,81.4z M90.3,27.9c-2.6,2.6-5.2,4.9-7.4,7.5c-2.1,2.5-4.7,3-7.7,2.6c-0.5-0.1-1-0.2-1.5-0.2
		c-5.4-0.9-8-3.2-9.1-8.5c-0.3-1.3-0.4-2.7-0.6-4.1c-0.2-2,0.4-3.6,1.9-5c2.4-2.3,4.8-4.8,7.2-7.1c0.3-0.3,0.8-0.5,0.7-1.2
		c-4.1,0.2-8,1.1-11.5,3.2C56,18.7,53.6,25.4,56,32.2c2.3,6.3,6.7,10.7,12.8,13.4c2.7,1.2,5.5,1.6,8.4,1.2
		C85.6,45.4,90.2,37.1,90.3,27.9z"/>
	<path d="M75.2,96.9c-3.4-0.1-6.5-1.1-8.9-3.5c-5-4.9-9.9-9.9-14.9-14.8c-0.6-0.6-0.5-1,0-1.6c1.3-1.5,2.6-3,3.8-4.6
		c0.7-0.9,1.1-0.8,1.8-0.1c4.5,4.6,9,9.1,13.6,13.6c0.4,0.4,0.7,0.7,1.1,1.1c2.1,2,5.1,2,7,0.1c2-2,2-5-0.1-7.1c-5-5-10-10.1-15-15
		c-0.9-0.9-0.9-1.4-0.1-2.4c1.5-2.2,3.3-3,5.9-2.2c1.2,0.4,2.2,0.7,3.1,1.6c4.1,4.1,8.2,8.2,12.3,12.3c6.2,6.4,4.8,16.4-2.9,20.9
		C79.8,96.3,77.6,96.9,75.2,96.9z"/>
</g>
</svg>
