<?xml version="1.0" encoding="utf-8"?>
<!-- Generator: Adobe Illustrator 26.3.1, SVG Export Plug-In . SVG Version: 6.00 Build 0)  -->
<svg version="1.1" id="Capa_1" xmlns="http://www.w3.org/2000/svg" xmlns:xlink="http://www.w3.org/1999/xlink" x="0px" y="0px"
	 viewBox="0 0 100 100" style="enable-background:new 0 0 100 100;" xml:space="preserve">
<g>
	<path d="M50.3,23.8c1.6-0.1,2.7,0.7,3.7,1.8c9.8,10,19.6,20.1,29.3,30.1c4.5,4.6,9.1,9.3,13.6,14c2,2,2,4.4,0.2,6.2
		c-1.8,1.7-4.3,1.6-6.2-0.4c-13-13.4-26.1-26.7-39.1-40.1c-1.4-1.4-1.4-1.4-2.8,0C36.5,48.1,24,60.9,11.6,73.7
		c-0.6,0.6-1.1,1.2-1.7,1.8c-1.9,1.8-4.5,2-6.2,0.3c-1.8-1.7-1.8-4.3,0.1-6.2c5.7-5.8,11.4-11.6,17-17.4
		c8.6-8.9,17.3-17.7,25.9-26.6C47.7,24.6,48.8,23.8,50.3,23.8z"/>
</g>
</svg>
