<?xml version="1.0" encoding="utf-8"?>
<!-- Generator: Adobe Illustrator 26.3.1, SVG Export Plug-In . SVG Version: 6.00 Build 0)  -->
<svg version="1.1" id="Capa_1" xmlns="http://www.w3.org/2000/svg" xmlns:xlink="http://www.w3.org/1999/xlink" x="0px" y="0px"
	 viewBox="0 0 100 100" style="enable-background:new 0 0 100 100;" xml:space="preserve">
<g>
	<path d="M88.8,43.7c0,0.7,0,1.4,0,2.1c-0.1,2.4,0.2,4.6,1.1,6.9c2.3,6,0,12.6-5.6,16.7c-1.2,0.9-1.8,1.9-2.3,3.2
		c-1.9,5.9-5.5,10.6-10.2,14.6c-5.7,4.9-12.1,8.4-19.6,9.5c-3.2,0.5-6.2-0.1-9.2-1.1c-9.6-3.3-17.3-9-22.6-17.8
		c-1.2-1.9-2-4-2.6-6.2c-0.2-0.8-0.6-1.3-1.3-1.7c-4-2.7-6.8-6.2-7.2-11.1c-0.2-2.6,0.5-5.1,1.5-7.6c0.3-0.8,0.5-1.6,0.5-2.5
		c0.1-4.1-0.1-8.3,0.2-12.4c1-14.9,9.3-26.8,24.7-31.1c7.1-2,14.3-2.7,21.6-0.8c4,1,7.5,3,10.5,5.9c0.4,0.4,0.8,0.7,1.4,0.8
		c8.2,1.8,13.5,6.9,16.5,14.6c1.6,4.2,2.2,8.6,2.3,13.1C88.9,40.4,88.8,42.1,88.8,43.7C88.8,43.7,88.8,43.7,88.8,43.7z M22,56.4
		c-0.9,0-1.9,0-3,0c-0.6,0-0.9,0.3-1.1,0.9c-0.3,1.7,0.3,3.1,1.4,4.3c1.1,1.2,2.5,2.1,4,2.6c1.2,0.4,1.6,1.1,1.7,2.3
		c0.2,2.3,1,4.4,2.2,6.3c4.7,7.5,11.5,12.3,19.7,15.2c2.3,0.8,4.7,0.7,7-0.1c6.6-2.2,12.2-5.9,16.7-11.2c2.1-2.5,4-5.3,4.4-8.5
		c0.3-2.7,1.5-4.1,3.7-5.2c1.9-1,3.3-2.5,3.7-4.8c0.2-1.3-0.1-1.7-1.3-1.7c-2.1,0-4.2-0.1-6.2,0c-1.1,0-1.5-0.5-1.6-1.5
		c-0.8-6.2-3.4-11.5-7-16.5c-0.7-1-1.3-0.9-2.2-0.1c-3.8,3.5-8.2,5.8-13.1,7.3c-6.2,1.8-12.5,2.5-18.9,2.5c-1.3,0-2,0.4-2.5,1.6
		c-0.4,1.1-1,2.2-1.6,3.3C25.6,57.2,27.1,56.3,22,56.4z M80.1,47.8c0.4-0.3,0.3-0.7,0.3-1.1c-0.1-3.5,0.1-6.9-0.2-10.4
		c-1-9-6.4-15.4-15-17c-0.6-0.1-0.9-0.3-1.2-0.8c-1.6-3.3-4.4-5.1-7.8-6c-5-1.3-10.1-0.9-15,0.1c-10.7,2.2-17.8,8.3-20.4,19.2
		c-1.2,5-0.9,10.1-0.9,15.2c0,0.3,0,0.7,0.4,0.8c0.5,0.1,0.8-0.2,1-0.6c1-2,2-3.9,2.9-5.9c0.5-1.1,1.1-1.5,2.4-1.5
		c4.9,0.1,9.8-0.2,14.6-1.2C49.4,37,57,34,62.7,27.5c0.5-0.6,1-0.5,1.6-0.2c2.6,0.9,4.8,2.3,6.8,4.2c4.3,4.1,6.8,9.3,8.4,15
		C79.7,46.9,79.6,47.5,80.1,47.8z"/>
</g>
</svg>
