<?xml version="1.0" encoding="utf-8"?>
<!-- Generator: Adobe Illustrator 26.3.1, SVG Export Plug-In . SVG Version: 6.00 Build 0)  -->
<svg version="1.1" id="Capa_1" xmlns="http://www.w3.org/2000/svg" xmlns:xlink="http://www.w3.org/1999/xlink" x="0px" y="0px"
	 viewBox="0 0 100 100" style="enable-background:new 0 0 100 100;" xml:space="preserve">
<g>
	<path d="M46,99c-6.4,0-12.8,0-19.2,0c-3.6,0-5.2-1.7-5.2-5.3c0-5.2,0-10.4,0-15.6c0-4.2-1.3-7.8-4-10.9c-4.9-5.6-8.3-12-9.5-19.4
		c-2.2-13.6,1.7-25.3,11.5-35C26.5,6,35,2.3,44.7,1.5c12.3-1,23,2.8,31.9,11.2c6.9,6.5,10.8,14.6,12,24c0.3,2.5,1.1,4.8,2.4,6.9
		c2.2,3.8,4.4,7.6,6.6,11.4c2.6,4.4,0.5,8.9-4.5,9.9c-1,0.2-2,0.4-3.1,0.5c-0.9,0.1-1.2,0.6-1.2,1.5c0,2.7,0,5.4,0,8.2
		c0,7.1-5.5,11.8-12.5,10.7c-1.5-0.2-3-0.3-4.5-0.5c-0.9-0.1-1.2,0.2-1.2,1c0,2.2,0,4.3,0,6.5c0,0.6,0,1.1-0.1,1.7
		c-0.3,3-1.9,4.4-4.8,4.4C59.1,99,52.6,99,46,99z M46,90.5c4.8,0,9.5,0,14.3,0c1.8,0,1.8,0,1.8-1.9c0-2.8-0.2-5.6,0.1-8.4
		c0.3-2.6,2.4-4.2,5-3.8c3.5,0.4,6.9,0.8,10.4,1.2c2.1,0.2,2.8-0.5,2.8-2.6c0-4.1,0-8.2,0-12.3c0-2.5,1.3-4,3.7-4.6
		c0.9-0.2,1.9-0.4,2.8-0.5c1.7-0.3,1.9-0.8,1.1-2.3c-1.5-2.6-3-5.2-4.5-7.7c-1.6-2.8-2.7-5.7-3.2-8.9c-0.5-3.3-1.1-6.6-2.4-9.6
		C70.1,11,47.8,4.3,31.1,14.5c-11.6,7-17.2,19.8-14.6,32.9c1.2,5.7,4,10.5,7.8,14.9c3.8,4.4,5.7,9.7,5.7,15.6c0,3.7,0,7.3,0,11
		c0,1.7,0,1.7,1.7,1.7C36.5,90.5,41.2,90.5,46,90.5z"/>
	<path d="M64.4,30.3c-0.1,1.1-0.8,1.8-1.4,2.6c-0.6,0.8-0.7,1.4-0.2,2.2c0.1,0.2,0.2,0.4,0.3,0.6c0.3,1.7,1.5,2.2,3,2.4
		c1.9,0.2,2.4,0.9,2.5,2.8c0,0.2,0,0.3,0,0.5c0,3.3,0.2,4.3-3.8,4.7c-0.7,0.1-1.2,0.4-1.4,1.1c0,0.1-0.1,0.3-0.1,0.4
		c-1.1,1.7-0.8,3.1,0.5,4.6c1,1.1,0.8,2-0.2,3.1c-0.7,0.7-1.5,1.5-2.2,2.2c-0.9,0.9-1.8,0.9-2.8,0.3c-0.1,0-0.2-0.1-0.2-0.1
		c-1.7-2-3.5-1-5.3-0.2c-0.6,0.3-0.7,0.7-0.8,1.3c-0.7,3.6-0.7,3.6-4.4,3.6c-0.5,0-1,0-1.6,0c-1,0-1.7-0.6-2-1.6
		c0-0.1-0.1-0.3-0.1-0.4c0.2-2.7-1.8-3.3-3.7-4c-0.6-0.2-1,0.1-1.4,0.4c-3.1,2.1-3.1,2.1-5.7-0.5c-0.3-0.3-0.6-0.5-0.8-0.8
		c-1-1.1-1.3-2.1-0.2-3.1c1.9-1.9,1-3.6,0.2-5.5c-0.2-0.4-0.5-0.6-0.9-0.6c-0.6-0.1-1.3-0.2-1.9-0.4c-1.6-0.4-2-0.9-2.1-2.5
		c0-1,0-2,0-3c0-1.3,0.7-2.2,1.9-2.2c2.6,0.1,3.4-1.7,4.1-3.7c0.2-0.6-0.1-1-0.3-1.4c-2.1-3.1-2.1-3.1,0.5-5.8
		c0.2-0.2,0.5-0.5,0.7-0.7c1.2-1.1,2-1.2,3.3-0.3c2.1,1.4,3.4,1.4,5.5,0.1c0.5-0.3,0.4-0.8,0.5-1.2c0.8-3.6,0.8-3.7,4.5-3.6
		c2.9,0,3.2,0.3,3.8,3.1c0.5,2.4,3.4,3.6,5.5,2.1c2.2-1.6,2.6-1.5,4.5,0.4c0.6,0.6,1.1,1.1,1.6,1.7C64.2,29.3,64.4,29.8,64.4,30.3z
		 M48.1,34.1c-4.4,0-8,3.6-8,8c0.1,4.3,3.8,8,8,7.9c4.4-0.1,7.9-3.6,7.9-8.1C56,37.5,52.5,34.1,48.1,34.1z"/>
</g>
</svg>
