<?xml version="1.0" encoding="utf-8"?>
<!-- Generator: Adobe Illustrator 26.3.1, SVG Export Plug-In . SVG Version: 6.00 Build 0)  -->
<svg version="1.1" id="Capa_1" xmlns="http://www.w3.org/2000/svg" xmlns:xlink="http://www.w3.org/1999/xlink" x="0px" y="0px"
	 viewBox="0 0 100 100" style="enable-background:new 0 0 100 100;" xml:space="preserve">
<g>
	<path d="M50,14.5c10.9,0,21.8,0,32.7,0c7.5,0,12.6,5.1,12.6,12.6c0,15.3,0,30.5,0,45.8c0,7.5-5.1,12.7-12.6,12.7
		c-21.8,0-43.7,0-65.5,0C9.8,85.5,4.6,80.4,4.6,73c0-15.3,0-30.6,0-45.9c0-7.5,5.1-12.6,12.6-12.6C28.1,14.4,39.1,14.5,50,14.5z
		 M87.2,27.4c-0.6,0.5-0.9,0.9-1.3,1.2c-7.9,7.5-15.8,15-23.7,22.5c-7,6.6-17.5,6.5-24.5-0.1C31,44.7,24.3,38.3,17.6,32
		c-1.5-1.5-3.1-2.9-4.8-4.5c0,0.8,0,1.2,0,1.7c0,14.5,0.1,29,0,43.5c0,3,1.8,4.8,4.8,4.7c21.6-0.1,43.3,0,64.9,0
		c3.4,0,4.7-1.3,4.7-4.7c0-14.6,0-29.1,0-43.7C87.2,28.6,87.2,28.2,87.2,27.4z M19.9,22.7c0,0.4,0.2,0.5,0.4,0.7
		c7.7,7.3,15.4,14.6,23.1,21.9c3.7,3.5,9.4,3.4,13.1-0.1c7.7-7.2,15.3-14.5,22.9-21.7c0.2-0.2,0.6-0.3,0.5-0.8
		C60,22.7,40,22.7,19.9,22.7z"/>
</g>
</svg>
