<?xml version="1.0" encoding="utf-8"?>
<!-- Generator: Adobe Illustrator 26.3.1, SVG Export Plug-In . SVG Version: 6.00 Build 0)  -->
<svg version="1.1" id="Capa_1" xmlns="http://www.w3.org/2000/svg" xmlns:xlink="http://www.w3.org/1999/xlink" x="0px" y="0px"
	 viewBox="0 0 100 100" style="enable-background:new 0 0 100 100;" xml:space="preserve">
<g>
	<path d="M50.2,22c-12.6,0-25.3,0-37.9,0c-2.8,0-4.6-1.6-4.8-3.9c-0.1-2.4,1.5-4.3,3.9-4.5c0.4,0,0.8,0,1.2,0c25.1,0,50.2,0,75.4,0
		c0.4,0,0.8,0,1.2,0c2.2,0.2,3.8,2,3.8,4.2c0,2.2-1.5,4-3.8,4.2c-0.5,0.1-1,0-1.6,0C75.2,22,62.7,22,50.2,22z"/>
	<path d="M50.3,54.5c-12.4,0-24.9,0-37.3,0c-0.5,0-1,0-1.6,0c-2.3-0.2-3.9-2-3.9-4.3c0-2.2,1.6-3.9,3.9-4.1c0.4,0,0.9,0,1.3,0
		c25,0,50.1,0,75.1,0c0.4,0,0.9,0,1.3,0c2.2,0.2,3.9,1.9,3.9,4.1c0,2.3-1.6,4-3.9,4.3c-0.5,0.1-1,0-1.6,0
		C75.1,54.5,62.7,54.5,50.3,54.5z"/>
	<path d="M50.2,78.5c12.7,0,25.4,0,38.1,0c2.7,0,4.6,1.6,4.7,4c0.1,2.3-1.5,4.2-3.8,4.4c-0.4,0-0.9,0-1.3,0c-25.1,0-50.2,0-75.2,0
		c-0.4,0-0.9,0-1.3,0c-2.2-0.3-3.8-2-3.8-4.2c0-2.2,1.6-3.9,3.8-4.2c0.5-0.1,1,0,1.6,0C25.4,78.5,37.8,78.5,50.2,78.5z"/>
</g>
</svg>
