<?xml version="1.0" encoding="utf-8"?>
<!-- Generator: Adobe Illustrator 26.3.1, SVG Export Plug-In . SVG Version: 6.00 Build 0)  -->
<svg version="1.1" id="Capa_1" xmlns="http://www.w3.org/2000/svg" xmlns:xlink="http://www.w3.org/1999/xlink" x="0px" y="0px"
	 viewBox="0 0 426 500" style="enable-background:new 0 0 426 500;" xml:space="preserve">
<style type="text/css">
	.st0{fill:#FAFAFA;}
	.st1{fill:#212121;}
	.st2{fill:#FFFFFF;}
</style>
<g>
	<path class="st0" d="M415.7,153.2c5.3,10,1,24.4-10.7,28.1c-3.5,1.1-6.9,2.4-10.3,3.8c-1.5,0.6-3,1.5-3.9,2.7
		c-0.8,1.1-1.4,2.9-1,4.1c0.3,1,2.1,2.3,3.3,2.3c3.1,0.1,6.2-0.4,9.4-0.6c0.8-0.1,1.5-0.2,2.7-0.3c-4.7,5.7-12.9,8.7-20.6,6.3
		c-6.8-2.1-10.2-7.1-11-15.4c-1.3,4-2.9,7.9-3.9,12c-1.1,4.8-1.7,9.7-2.5,14.5c-0.7,4.4-3,8-6.3,10.8c-4.5,3.7-9,7.4-14,10.3
		c-6.3,3.8-10.6,9-11.6,16c-1.6,12-7.6,21.3-15.8,29.7c-3.9,4-7.1,8.6-10.6,12.9c-7.9,9.6-16,19-23.8,28.6
		c-4.9,6-9.4,12.2-14.1,18.4c-4.5,5.9-9.9,10.7-17.4,12.3c-6.4,1.4-12.8,0.2-18.8-1.9c-6.1-2.1-12-4.6-18.2-7
		c-1,1.4-2.3,3.4-3.7,5.6c3.4,2.8,6.9,5.6,10.2,8.4c11.6,10.2,24.3,18.9,36.8,27.9c19.5,14,31.3,33.2,37.8,56
		c4.5,15.5,6.4,31.5,8.6,47.4c0.1,0.7,0.2,1.4,0.3,2.2l-1.9-1.2c0,0.4,0.1,0.8,0.1,1.1l1.8,0.1c-21.4,6.7-79.8,21.2-146.2-1.7
		c-28.9-9.9-85.3-28-104.5-74.7c-9.2-22.2-10.4-54-32.1-73.2c-3.7-3.3-15.4-12.7-18.9-28.4c-1.5-6.5-1.5-12.3-1-16
		c0.6-0.4,0.7-0.9,1.4-1.1c10.5-3.1,21-6.2,31.6-9.2c0.3-0.1,0.7-0.3,1-0.4c0.3-3.5,0.3-3.5,3.8-3.2c2.7,0.2,5.4,0.5,8.1,0.9
		c4.7,0.8,9.3,0,13.6-1.7c13-5.3,25.5-11.7,35.7-21.7c7.7-7.5,13.4-16.5,18-26.1c6.4-13.1,10.4-27,14.1-41c0.7-2.7,1.5-5.3,2.2-8
		c0.1-0.6,0-1.4-0.3-1.8c-5.4-5.9-7.8-13-8.6-20.7c-0.9-8.6,1.1-16.9,2.8-25.3c0.8-4.2,1.7-8.5,2.8-12.7c2-7.8,7-13.4,13.5-17.8
		c0.5-0.3,1-0.6,1.7-1.1c-1.9-4-1.4-7.9,0.3-11.8c0.4-1,0.4-1.8-0.6-2.9c-1.9-2.2-2.1-5-1.2-7.7c2.7-8.9,7.1-16.9,14.1-23.2
		c1.1-1,1.4-2,0.4-3.2c-4.3-5.4-3.7-8.9,0.8-14.8c2.5-3.2,5.6-6,8.4-9c0.6-0.6,1.1-1.3,1.7-2l2.2,0.1c-0.2,0.3-0.4,0.6-0.6,0.9
		c2.2,0.2,4.2,0.2,6,0.2c1.6-0.2,3.1-0.4,4.7-0.6l0.6,0c3.9-0.8,6.6-2.2,8.2-4.5c0.7-1,1-1.8,1.2-2.7c0.3-1.1,0.7-2.1,1.8-3.4
		c4.7-5.5,18.5-7.4,27-6.9l0.2,0c7.9,0.4,9.3-0.2,13.1-1.7c2.8-1.2,6.5-2.7,14.4-4.8c5.2-1.3,16-1.4,32.3-0.2c0.6,0,0.9,0.1,1.1,0.1
		c0.1,0,9.7,0.9,11.1,4.2c0.3,0.6,0.4,1.6-0.6,2.7c-1.5,1.7-2.7,2.9-3.5,3.7c1.2-0.2,2.9-0.5,5.2-0.6c1-0.1,10.1-0.8,18.9-0.5
		c11.1,0.3,16.9,2,17.6,5.2c0.3,1.2-0.2,2.1-0.7,2.8c-0.4,0.7-0.6,1-0.5,1.6c0.3,1.3,2.5,1.6,6.2,1.9c4.1,0.4,9.7,0.9,15.6,4
		c1.9,1,3,1.8,4.6,3c2,1.4,4.9,3.6,11.2,7.6c1.5,0.9,3,1.9,4.5,2.8c0.1,0.1,0.2,0.1,0.3,0.2c3,1.8,5.2,4.4,6.7,7.5
		c1.2,2.5,3,4.3,5.5,5.5c1.1,0.5,2.2,1.2,3.3,1.8c3.7,2.3,3.9,6.3,0.5,9.1c-0.3,0.3-0.7,0.5-1.1,0.8c7.2,2.6,12.9,6.8,17.4,12.8
		c4.3,5.7,4.4,12,2.6,18.4c-0.7,2.6-2,5-3.2,7.4c-2.5,5-1.8,7.6,3.1,10.3c2.3,1.3,4.8,2.2,7.1,3.5c1.7,0.9,3.4,2,5,3.2
		c7.5,5.7,5.3,14.7-1,18.9c-2.5,1.7-5.2,2.9-8,4.5C413.1,147.5,414.4,150.7,415.7,153.2z"/>
	<path class="st1" d="M400.5,136.5c2.7-1.7,5.3-3.1,7.7-4.9c6-4.5,7.8-13.7,0-19c-1.6-1.1-3.4-2.1-5.1-2.9c-2.3-1.1-4.8-1.9-7.1-3
		c-3.8-1.8-5.5-6.4-3.8-10.3c1.1-2.5,2.2-5,2.8-7.6c1.4-6.5,1-12.8-3.6-18.3c-4.8-5.7-10.7-9.7-18-11.9c0.4-0.3,0.8-0.6,1.1-0.8
		c3.3-3,2.9-7-1-9.1c-1.1-0.6-2.2-1.2-3.3-1.7c-2.5-1.1-4.4-2.7-5.8-5.2c-1.6-3-4-5.5-7-7.1c-0.1-0.1-0.2-0.1-0.4-0.2
		c-1.5-0.8-3.1-1.7-4.6-2.5c-6.5-3.6-9.6-5.7-11.6-7c-1.7-1.1-2.9-1.9-4.8-2.8c-6-2.7-11.7-3-15.8-3.2c-3.7-0.2-5.8-0.3-6.2-1.6
		c-0.2-0.5,0-0.9,0.4-1.6c0.4-0.7,0.9-1.6,0.5-2.8c-0.9-3.1-6.8-4.5-17.9-4.3c-8.8,0.2-17.8,1.3-18.8,1.5c-2.3,0.3-4,0.6-5.2,0.9
		c0.8-0.9,1.9-2.1,3.3-3.9c0.9-1.1,0.8-2.1,0.5-2.7c-1.5-3.2-11.2-3.6-11.3-3.6c-0.2,0-0.5,0-1.1,0c-16.3-0.4-27.2,0.2-32.3,1.8
		c-7.8,2.5-11.5,4.2-14.1,5.5c-3.7,1.8-5.1,2.4-13,2.4c-0.1,0-0.1,0-0.2,0c-8.5,0-22.2,2.6-26.6,8.3c-1,1.4-1.3,2.5-1.6,3.5
		c-0.2,0.9-0.4,1.7-1.1,2.7c-1.5,2.3-4.1,3.9-8,4.9H167c-1.6,0.3-3.1,0.5-4.7,0.8c-1.7,0.1-3.5,0.2-5.4,0.2c-0.2,0-0.5-0.1-0.7-0.2
		c-0.4-0.2-1.8,0-3.1,1.3c-2.9,3-5.6,6.1-7.9,9.4c-4.3,6.1-4.7,9.6-0.1,14.8c1,1.2,0.8,2.2-0.2,3.2c-6.7,6.6-10.6,14.8-12.9,23.8
		c-0.7,2.7-0.4,5.6,1.6,7.6c1,1,1.1,1.8,0.7,2.8c-1.5,4-1.8,7.9,0.3,11.8c-0.7,0.5-1.2,0.8-1.6,1.1c-6.3,4.7-11,10.6-12.6,18.5
		c-0.9,4.2-1.5,8.5-2.1,12.8c-1.2,8.4-2.8,16.9-1.5,25.4c1.2,7.7,4,14.7,9.7,20.3c0.4,0.4,0.6,1.2,0.4,1.8c-0.5,2.7-1.2,5.4-1.8,8.1
		c-3,14.2-6.3,28.3-12,41.7c-4.2,9.8-9.4,19.1-16.7,27c-9.7,10.5-21.8,17.5-34.6,23.5c-4.2,2-8.7,2.9-13.4,2.4
		c-2.2-0.2-4.4-0.4-6.6-0.5c-5.1-0.1-5.1-0.5-5.2,3.4c-0.3,0.1-0.6,0.3-1,0.4c-10.4,3.6-20.7,7.2-31.1,10.8
		c-0.6,0.2-0.7,0.7-1.3,1.2c0.7,0,1.1,0.5,1.7,0.3c6.7-2.4,13.3-4.9,20-7.2c3.9-1.4,7.8-2.6,11.9-4c0.3,0.9,0.4,1.5,0.6,2.1
		c5.5,16.1,13.7,30.9,22.8,45.2c8.9,14,21.1,24.9,34.7,34c15.2,10.2,30.7,20.1,46.1,29.9c7,4.5,14.3,8.7,22.2,11.5
		c7.1,2.5,13.2,1,18.6-4.2c5.6-5.5,10.2-11.7,13.2-18.8c4.9-11.4,9.2-23.1,13.8-34.6c1.5-3.8,3.2-7.7,4.8-11.6
		c0.8,0.5,1.3,0.8,1.7,1.1c13.1,10,26.3,19.9,40.5,28.5c8,4.8,15.7,10.1,22.3,16.8c10.2,10.4,17.6,22.6,22.7,36.3
		c4.4,11.7,7.3,23.8,9.6,36c1.1,5.7,2.1,11.4,3.1,17h1.8c-0.1-0.7-0.3-1.4-0.4-2.2c-3-15.8-5.8-31.6-11-46.9
		c-7.7-22.5-20.5-41-40.6-54c-12.9-8.4-26.1-16.4-38.2-26c-3.4-2.7-7-5.3-10.6-7.9c1.3-2.2,2.5-4.2,3.4-5.7
		c6.4,2.1,12.4,4.4,18.6,6.1c6.2,1.7,12.5,2.6,18.9,0.9c7.9-2.1,13.2-7.7,17.5-14.3c3.5-5.4,7.1-10.7,10.9-16
		c7.8-10.7,15.8-21.2,23.7-31.8c3.3-4.5,6.3-9.3,10-13.4c7.8-8.8,13.3-18.4,14.3-30.5c0.6-7.1,4.6-12.5,10.7-16.6
		c4.8-3.2,9.2-7.1,13.4-11c3.2-2.9,5.3-6.6,5.8-11.1c0.5-4.9,0.9-9.8,1.7-14.6c0.8-4.1,2.2-8.1,3.3-12.2c1.2,8.3,4.9,13,11.8,14.8
		c7.9,2.1,15.9-1.4,20.3-7.3c-1.2,0.2-1.9,0.3-2.7,0.4c-3.1,0.4-6.2,1.1-9.3,1.1c-1.2,0-3-1.1-3.4-2.1c-0.4-1.2,0.1-3,0.8-4.2
		c0.9-1.2,2.4-2.2,3.8-2.9c3.3-1.6,6.7-3,10.1-4.3c11.4-4.3,15-18.9,9.2-28.6C406,139.6,404.5,136.5,400.5,136.5z M124.7,179.8
		c-5.7-8.2-7.6-17.3-6.6-27c1.1-9.8,2.4-19.7,4.4-29.3c1.9-8.9,12.8-19.5,23.3-19.6c8.9-0.1,16.1,5.5,18.9,14.6
		c1.4,4.4,1.3,8.8,0.7,13.3c-1,7.3-2,14.5-2.9,21.8c-0.3,2.8,0.9,4.8,3.2,5.8c-4.9,7.7-9.7,15.5-14.8,23.1c-2.4,3.6-4.8,4-8.5,1.8
		c-4.6-2.6-7.6-6.5-9.1-11.7c-0.8-2.6-1.6-5.2-2.7-7.6c-0.7-1.6-1.8-3.2-3.1-4.2c-4.2-3.3-5.3-7.8-5-12.8c0.7-9.3,3.5-18.2,6.5-27
		c2.1-6.1,11.4-11.7,18.6-9.6c2.6,0.7,4.4,2.3,5.7,4.5c2.2,3.8,2.4,12,0.6,15c-3.2-0.2-6.3-0.6-9.3-0.4c-4.1,0.2-7.4,2.3-10,5.4
		c-3.4,4.1-6.5,8.4-6.6,14c-0.1,3.9,1.6,7,4.9,9.1c3.3,2.1,6.7,4.3,10,6.4c1.9,1.2,3.9,2.2,6.2,1.4c2.9-1,4.4-3.9,3.9-7.8
		c-0.3-2-0.5-4.1-1.3-6c-2.6-5.9-1.5-11.5,1.4-16.9c2.1-3.9,4-7.9,3.6-12.5c-0.2-2.5-0.7-5.1-1.6-7.5c-1.7-4.5-5.2-6.3-9.9-6.7
		c-7.5-0.5-16,4.9-18.2,12.6c-2.5,9.2-5.9,18.1-6,27.8c0,4.3,1.1,8.3,4.7,11.1c3.6,2.8,4.6,7,5.8,11.1c2.2,7.5,5.5,11.4,12.5,14.6
		C137.8,189,128.8,185.6,124.7,179.8z M166.6,161.5c0.7-1,1.6-1.8,2.6-2.6c-6.9,18.8-18.9,35.1-27,53.3c1.1-3.9,2.4-7.8,3.4-11.7
		c1.1-4.2,2-8.5,3-12.8c0.1-0.4,0.4-0.9,0.7-1.3c2.4-3.1,4.9-6.1,7.1-9.3C159.9,172,163.1,166.7,166.6,161.5z M149.6,151.2
		c0.9,3.3,1.7,6.7,1.9,10.1c0.2,3.8-2.9,5.6-6.2,3.7c-4.3-2.4-8.4-5-12.5-7.8c-2.9-2-3.1-5.3-2.9-8.6c0.4-5.8,7.7-15.9,13.8-16.4
		c3.1-0.3,6.2,0,9.6,0c-1.4,3.2-2.6,5.7-3.5,8.2C148.6,143.9,148.6,147.5,149.6,151.2z M37.9,289.3c3.5,0.2,6.8,0.4,10,0.6
		c0,0.1,0,0.3,0.1,0.4c-3.1,0.4-6.3,0.9-9.6,1.4C38.2,290.9,38,290.3,37.9,289.3z M209.5,352.7c-4.1,10.2-7.5,20.6-11.6,30.8
		c-3.8,9.4-8.5,18.4-15.7,25.8c-2.9,3-6.2,5.9-10.6,6.1c-2.8,0.1-6-0.2-8.5-1.4c-7.3-3.4-14.7-6.9-21.6-11.3
		c-16.7-10.5-33.3-21.2-49.5-32.4c-18.1-12.4-31.3-29.1-40.8-48.8c-3.8-8-7.6-16-11.4-24c-0.5-1.1-0.7-2.4-1.1-3.6
		c-0.1-0.3,0-0.6,0-0.7c3.5-0.6,6.9-1.1,10.2-1.7c10.2-1.9,19.3-6.4,28.3-11.6c21-12,33.3-30.5,41-52.8c4.5-13.2,7.2-26.8,10.2-40.4
		c0.1-0.3,0.2-0.6,0.3-1c10.8,5.3,12.7,3.6,19,1.8c-0.7,2.8-1.3,5.4-1.9,8c-2,7.6-4.4,15-6,22.7c-1.6,7.9-2.7,15.9-0.2,24
		c2.3,7.4,6.3,13.7,11,19.7c14.1,18.2,28.3,36.4,42.7,54.4c6.8,8.6,14.3,16.6,23.9,21.9C214.3,343,211.5,347.7,209.5,352.7z
		 M329.6,244.6c-0.9,7.2-3.1,13.8-8,19.1c-8.6,9.4-15.1,20.4-22.7,30.6c-5.9,7.9-12.1,15.6-17.9,23.5c-4.2,5.7-8,11.8-12.1,17.6
		c-2.5,3.4-5.6,6.1-9.9,8.3c6.3-8.9,7.6-19.2,10.9-28.7c0.9-2.7,1.8-5.5,1.9-8.3c0.1-4.6-3.3-7.5-6.5-10.2c-0.4-0.4-0.9-0.7-1.4-1
		c0.1-0.1,0.2-0.2,0.2-0.2c3.2,1.9,6.4,3.8,9.6,5.6c5.8,3.2,8.2,2.9,13.3-1.3c6.4-5.2,10.3-11.9,11-20.1c0.2-2.5-1-5.1-1.2-7.7
		c-0.5-5.7-0.8-11.4-1.2-16.9c3.4,0.8,6.4,2,9.5,2.2c5.2,0.3,9-2.3,11.2-7c2.5-5.4,3.1-11,2.8-16.9c-0.2-4.9,0-9.8,0-15
		c4.6,4.9,9.1,9.9,16.8,9.8C331.6,232.9,330.3,238.7,329.6,244.6z M217.4,238.8c-0.3-6.1-2.1-11.7-4.9-16.9
		c-3.5-6.5-7.3-12.9-10.8-19.4c-4.6-8.7-6.2-18-5.3-27.9c0.7-8,2-15.9,6.2-22.9c6.1-10.2,15-17.3,26.7-19.7
		c13.5-2.7,26.1,0.4,35.9,10.3c9.2,9.3,19.5,17.1,30.7,23.8c4,2.5,7.5,5.6,10.3,9.5c1.9,2.6,3.3,2.5,4.7-0.2c1.4-2.6,2.5-5.4,4.2-8
		c-0.8,3.6-1.5,7.2-2.5,10.7c-1.2,4.4-2.7,8.7-4.2,12.9c-1.2,3.6-1.4,7.2-0.9,11c0.5,4.7,0.5,9.5,0.5,14.3c0,5.2-0.2,10.4-0.4,15.6
		c0,1.1-0.4,2.2-0.8,3.1c-1.2,2.6-3,3.2-5.5,1.7c-5-3-9-7-12.6-11.5c-2.8-3.6-6.4-5.4-10.9-5.8c-4.7-0.4-11.7,3.9-13.5,8.4
		c-1.2,3.2-0.2,7,2.7,9.8c3.3,3.3,7.3,5.2,12,5.8c3.6,0.5,7,1.5,10,3.8c1.3,1,1.9,1.7,0.5,3.3c-3.1,3.5-4.1,7.8-4.4,12.7
		c-3.5-3.3-7.5-5.6-12-5.9c-5.2-0.4-10.4-0.3-15.6,0c-5.7,0.3-11.4,1-17.1,1.6c-2.3,0.3-4.6,0.9-6.9,1.4c-0.4,0.1-0.7,0.6-1.3,1.1
		c2.9,2.5,6.2,3.9,9.6,5c7.3,2.4,14.7,4.4,21.9,7c3.3,1.2,6.2,3.3,9.3,5c3.5,1.9,7.1,3.9,10.6,5.7c4,2.1,5.7,8.3,3.5,12.7
		c-2,4-7.1,5.8-11.3,3.4c-7.6-4.2-14.9-8.7-22.4-13.1c-1.8-1-3.5-2.1-5.3-3.1c-0.6-0.3-1.4-0.3-2.1-0.4c-0.1,0.3-0.2,0.5-0.3,0.8
		c1,0.7,2,1.4,3,2.1c5.7,4.1,11.4,8,17,12.2c2.8,2.1,4.9,4.9,4.7,8.8c0,0.9-0.2,1.9-0.5,2.8c-1.2,3.5-2.4,7-3.8,11.1
		c-0.4-5.3-2.7-9.2-6.2-12.3c-3.5-3.2-7.6-5.3-12.4-5.4c-2.7,0-5.4,0.2-8.1,0.7c-13.4,2.3-21.2-5.6-24.6-17.5
		c-1.7-6-0.6-12.1,0.2-18.2C216.3,258.8,217.9,248.9,217.4,238.8z M233.3,130c5.5-2.1,11.3-2.9,17.1-3c16-0.4,30.2,4.8,42.4,14.9
		c6.1,5.1,11.8,10.6,17.5,16.1c3,2.9,4.1,6.6,2.2,10.6c-1.1,2.5-2.3,5-3.4,7.4c-0.5-0.1-0.7-0.1-0.8-0.2c-5.1-7.4-12.7-11.7-20-16.2
		c-6.3-3.9-12.2-8.4-17.3-13.9c-6.6-7.1-14.2-12.8-23.9-14.9c-4.2-0.9-8.5-1.7-12.9-0.8C234,130.1,233.7,130,233.3,130z
		 M294.5,258.2c-0.2,4.4-0.1,8.8-0.1,13c-1.3-0.2-3.2-0.5-4.9-0.9c-0.6-0.1-1.3-0.5-1.5-1c-2.6-6.5-1.4-12.4,2.7-17.9
		c0.2-0.2,0.4-0.4,0.6-0.5C294.6,252.5,294.7,255.3,294.5,258.2z M296.4,279.8c-0.1,5.1-3.5,12.4-6.8,15.1c-0.1-1.4-0.1-2.9-0.2-4.4
		c-0.4-3.8-2.3-6.5-5.9-8.1c-2.6-1.1-5.2-2.4-7.6-4c-8-5.7-17.1-8.4-26.4-11c-4.9-1.4-9.6-3.3-14.5-4.9c0-0.3,0.1-0.6,0.1-0.9
		c3.4-0.5,6.8-1.2,10.2-1.5c8.3-0.6,16.6-1.2,24.8-1.4c4.8-0.1,9.5,1.4,13,5c1.2,1.3,2,3.2,2.5,4.9c0.5,2,0.7,3.3,3.4,3.3
		C295,271.9,296.5,273.8,296.4,279.8z M272.3,239.5c3.7-3,7.4-2.7,11-1.3c4.2,1.7,8,3.9,8.4,9.3
		C286.6,241.8,278.7,243.1,272.3,239.5z M332.2,226c-5.7-1.6-9.4-5.8-12.9-10.1c-0.2-0.3-0.4-0.7-0.4-1c0-3.1,0-6.2,0-9.2
		c0.2-0.2,0.5-0.4,0.7-0.5c2.6,1.3,5.5,2.2,7.7,3.9c3.1,2.5,5.8,5.5,8.6,8.5c0.8,0.9,1.3,2.1,1.6,3.3
		C338.5,225,336.3,227.1,332.2,226z M348.8,217.9c-2.9,2.4-6.1,4.5-9,6.7c-2-11.6-10.4-16.9-20.4-20.9c0.2-4.8,1.2-6.3,5.9-6.6
		c10.7-0.6,19.1,3.8,24.9,12.8C353.9,215.6,353.3,214,348.8,217.9z M358.4,207.5c-1.3,2-2.8,3.9-4.4,5.9
		c-6.8-12.9-17-19.2-31.5-17.8c2.6-3.3,6.5-4.6,10.6-5.1c7.4-1,14.3,0.4,20.5,4.7c3.2,2.2,5.2,5.1,5.7,9
		C359.4,205.3,359,206.6,358.4,207.5z M360.3,201c-2.1-5.2-6.6-7.8-11.3-10c-4.9-2.2-10-2.8-15.3-2.1c-3.5,0.5-6.9,1.3-9.8,3.4
		c-4.2,3.1-6.3,7.4-6.3,12.5c-0.1,10.5,0.2,21-0.1,31.5c-0.1,4-0.9,8.2-2.3,12c-2.3,6.4-7.2,8.7-13.9,6.5c-2.6-0.8-5-2.5-7.4-4.1
		c-0.5-0.4-0.6-1.6-0.7-2.5c-0.3-1.7-0.1-3.6-0.9-5c-2.5-5.1-11.5-8.9-16.9-7.3c-1.5,0.4-2.8,1.6-4.5,2.5c-4.4-2.2-6.8-7.1-4.5-11
		c3.9-6.7,13.7-9.5,20.1-2.9c4.1,4.2,8.2,8.4,12.7,12.2c6.4,5.4,10.4,0,10.4-5.2c0.1-11.2-0.5-22.5-0.6-33.7c0-2.4,0.8-4.9,1.4-7.3
		c1.8-6.4,3.8-12.7,5.5-19.1c1.4-5.1-0.3-9.9-3.5-13.6c-9.6-11.1-20.8-20.7-34.1-27.1c-10.8-5.2-22.4-6.3-34.2-5
		c-12.5,1.4-23.7,5.9-33.4,13.9c-7.7,6.3-12.2,14.5-14.2,24.2c-2.3,11-3.1,22.1,1.2,32.7c2.8,7,7,13.5,10.6,20.2
		c2.9,5.3,6.2,10.6,6.9,16.7c0.6,5.1,0.9,10.4,0.5,15.6c-0.7,8.8-2.2,17.5-3.1,26.2c-1.1,10,1.4,18.9,9,26c4.1,3.8,9,5.1,14.4,4.8
		c3.1-0.2,6.1-0.7,9.2-1c9.3-0.9,22.2,7.6,18.9,21.7c-1,4.4-2.7,8.8-4.5,13c-1.8,4.3-5.5,6.1-10.1,5.9c-14.1-0.6-26.9-4.8-38.2-13.3
		c-7.3-5.5-13.2-12.4-18.8-19.4c-13.4-16.8-26.7-33.7-39.8-50.9c-4.1-5.4-7.9-11.2-10.6-17.4c-4.3-9.7-3.3-19.9,1-29.5
		c4.3-9.5,9.2-18.8,14.1-28.1c5.3-10.3,11.4-20.1,14.9-31.3c0.3-0.9,1.4-1.6,2.2-2.4c2.9-2.5,5.9-4.9,8.6-7.5
		c4.2-4.2,5.9-9.6,6.8-15.4c0.2-1.2,0.9-2.7,1.8-3.2c5.3-3,10.7-5.7,16.1-8.5c1.6-0.8,3.3-1.2,4.9-2c0.9-0.4,1.6-1.2,2.3-2.1
		c-8.5,2.6-16.6,6-24,10.8c0.4-8.5,4.3-15.2,10.7-20.2c7.9-6.2,16-12.2,24.4-17.7c7.9-5.1,16.2-4.9,24.1,0.6c2.1,1.5,3.3,3.5,3.7,6
		c0.2,0.9,0.4,1.7,0.7,2.5c0.9,2.4,0.2,4-2.2,4.9c-1.2,0.4-2.5,0.7-4.3,1.2c1,0.5,1.5,0.9,2,0.9c2.2,0,4.3-0.7,5.5-2.6
		c1.3-2.1,2.1-4.4,1.4-7c-0.3-1.1-0.1-2.5,0.4-3.5c1.9-3.8,7.2-6.2,11.2-5.1c1.7,0.4,3.3,1.1,4.9,1.8c2.4,1.1,3.9,2.5,3.4,5.7
		c-0.7,5,1.5,8.4,5.9,10.5c4.4,2,8.5,1.3,12.1-2.2c1.3-1.3,2.5-2.7,3.9-4.2c-1.6,7.8,2.6,14.8,10.1,17.2c3.7,1.2,7.4,2.4,11,3.7
		c3.1,1.1,4.3,3.1,3.7,5.9c-0.5,2.5-2.7,3.8-5.8,3.5c-2-0.2-3.9-0.3-6-0.5c0.9,3.3,6,6,10.6,5.9c5.2-0.1,9.1-4.2,10.8-11.3
		c1,4.1,1.8,7.9,2.8,11.7c2.4,9.7,8.4,14.4,18.4,14.6c7.9,0.2,12.5,7.3,9.4,14.5c-1.1,2.6-3,4.1-5.9,4.3c-2.6,0.1-4.6-0.9-5.7-3.4
		c-0.2-0.4-0.5-0.7-0.7-1.1c-1.7,1.7-1.2,4.5,1.2,8.6c2.7,4.4,6.8,5.6,13.4,3.7C362,183.2,361,192.1,360.3,201z M173.6,152.3
		c1-5.3,8.7-17,14.2-21.6C187.5,140.7,181,146.8,173.6,152.3z M408.6,154.4c-1,7.1-4.2,12.2-11,14.9c-2.2,0.9-4.4,1.6-6.5,2.7
		c-2.6,1.4-5.3,2.9-7.7,4.6c-1.9,1.4-2.1,3.6-1.4,5.8c0.7,2.1,2.2,3.1,4.3,3.2c2.6,0.1,5.2,0,8.3,0c-2.5,1.1-4.6,2.3-6.9,3
		c-9.2,2.5-16.9-2.4-18.5-11.8c-0.4-2.2-0.8-4.5-1.2-6.6c-2.1,1.4-3.7,3.1-5.7,3.8c-2.1,0.7-4.5,0.3-6.2-1.3
		c-1.5-1.5-2.6-3.4-3.9-5.1c0.2-0.3,0.2-0.2,0.4-0.5c4.7,2.1,8.8,1.5,11.1-1.9c2.6-3.8,3.1-8,1-12.1c-2-4-5.3-6.3-10-6.4
		c-5.4-0.2-10.5-1.2-14.2-5.8c-2.2-2.8-3.2-6-4-9.4c-1.4-5.5-1.8-11.3-4.9-16.3c-0.4-0.7-0.9-1.3-1.4-2c-0.2,0-0.4,0.1-0.6,0.1
		c2.2,6.9,3.2,13.6-4.8,17.5c-3.4,1.6-6.7,0.6-10.1-1.7c1.6,0,2.8,0,4,0c3.2,0,5.1-1.5,5.9-4.5c0.9-3.6-0.1-5.9-3.9-7.4
		c-3.7-1.5-7.6-2.7-11.4-3.9c-7.1-2.2-10.9-8.4-9.4-15.7c0.4-1.7,1.1-3.3,1.7-5c-0.9,0.2-1.5,0.7-2,1.2c-2.2,2.3-4.2,4.7-6.5,6.9
		c-2.9,2.9-7.3,3.3-10.8,1.4c-3.6-2-5.3-5.7-4.4-9.9c0.4-1.8-0.1-3.1-1.3-4.1c-7.6-5.9-16.9-5.6-21.8,3.5c-1.3-1.4-2.4-3.1-3.9-4.3
		c-7-5.7-17.7-6.1-26.2-0.7c-7.2,4.7-14.3,9.5-21.1,14.7c-8,6-13.8,13.6-14.7,24c-0.1,1.1-0.6,2.5-1.5,3.3c-7,6.7-12,14.7-15.9,23.6
		c-0.8,1.8-2.2,3.3-3.6,4.7c-1.4,1.4-3,1.1-3.5-0.8c-0.2-0.7-0.2-1.6-0.1-2.3c0.9-7.8,1.8-15.6,2.9-23.4c0.9-6.9-0.3-13.3-4.2-19.1
		c-3.9-5.9-12.4-10.7-20.4-8.7c-2.2,0.6-4.4,1.5-6.6,2.2c-2.2-3.7-1.2-7.3-0.2-11c0.2-0.9-0.1-2.3-0.7-3.1c-1.8-2-2.4-4.2-1.7-6.7
		c0.7-2.5,1.4-4.9,2.4-7.3c2.2-5.6,5-10.7,9.3-15c3.1-3.1,3.2-3.7,0.5-7.2c-1.7-2.2-2.6-4.7-1.6-7.4c1.8-4.6,8.1-11.4,9.5-12.8
		c0.2-0.2,0.3-0.3,0.5-0.5v0c0.9-0.7,2-1,3.1-1c1.2,0,2.7,0,3.6,0c0.3,0,0.6,0,0.9,0c7.9-0.5,13-2.6,15.6-6.6
		c0.8-1.3,1.1-2.3,1.3-3.2c0.3-1,0.5-1.8,1.3-2.9c4-5.2,17.3-7.6,25.2-7.6c0.1,0,0.1,0,0.2,0c8.3,0,9.9-0.7,13.7-2.6
		c2.6-1.3,6.3-3,13.9-5.4c3.4-1.1,11.6-2.2,31.7-1.7c0.6,0,1,0,1.1,0c2.5,0,9,1,9.7,2.6c0,0.1,0.2,0.3-0.3,0.8
		c-1.5,1.8-2.6,3.1-3.4,4c-1.2,1.4-1.7,1.9-1.3,2.6c0.4,0.7,1.1,0.6,2.7,0.2c1.2-0.3,3-0.6,5.5-1c16-2.1,33.7-2.3,34.8,1.6
		c0.1,0.5,0,0.8-0.4,1.5c-0.4,0.7-0.9,1.7-0.5,3c0.8,2.5,3.8,2.6,7.8,2.8c4,0.2,9.4,0.4,15.1,3c1.8,0.8,2.8,1.5,4.5,2.6
		c1.3,0.9,3,2,5.8,3.6h-3.3c3.1,1.1,6.1,2.2,9.2,3.4c0,0,0.1,0,0.1,0.1c1.6,0.9,3.3,1.8,4.9,2.7l0.1-0.3c2.7,1.6,5.1,3.8,6.7,6.8
		c1.4,2.7,3.6,4.4,6.3,5.6c1.1,0.5,2.1,1,3.2,1.5c3.3,1.9,3.4,4.9,0.2,7.2c-0.9,0.7-2,1.1-3.1,1.8c0.5,0.4,0.7,0.8,1,0.8
		c5.4,0.7,9.9,3.5,14.2,6.6c6.6,4.8,10,11.1,9.1,19.5c-0.4,3.8-1.8,7.1-3.4,10.4c-2.3,4.8-1.2,8.3,3.3,11c1.5,0.8,3.1,1.4,4.6,2.1
		c2.9,1.4,5.9,2.6,8.6,4.4c5.6,3.8,6.3,9.3,2.2,14.6c-1,1.3-2.4,2.4-3.8,3.3c-1.9,1.3-4.1,2.3-6.1,3.5c-0.5,0.3-1.1,1.2-1.1,1.6
		c0.1,0.6,0.8,1.3,1.4,1.7c0.9,0.6,2.1,0.8,2.9,1.5C407.1,143.7,409.4,148.3,408.6,154.4z M271.8,166.9c-1.9,1.7-3.5,3.5-5.5,4.7
		c-4.3,2.7-9.5,1.8-12.9-2.5c-3.3-4.1-6.3-8.6-9.4-12.9c0.2-0.1,0.3-0.2,0.5-0.3c-1,0.1-2.1,0.1-3.1,0.2c-0.1-0.2-0.1-0.5-0.2-0.7
		c0.9-0.3,1.7-0.8,2.6-1c6.6-1.8,13.1-0.9,19.4,1.3c6.9,2.3,13.5,5.1,18.4,10.6c1.9,2.2,3.5,4.9,4.3,7.7c0.6,2.1-0.1,4.7-0.6,7
		c-0.3,1.4-1.4,2.7-2.2,4.2c-8-2.2-16.4-3.7-24.1-6.7c-5.3-2-9.9-5.8-14.7-9.1c-9.4-6.6-19.5-10.9-31.1-10.1
		c-3.8,0.3-7.5,1.9-11.2,2.8c-0.6,0.2-1.2,0.2-1.9,0c3.3-2.3,6.9-3.8,10.9-4.2c12.3-1.5,23.4,2.2,32.9,9.5
		c9.3,7.2,19.3,12.1,30.9,13.9c2.5,0.4,4.9,1.4,7.3,2.1C283.2,178.2,279,171.5,271.8,166.9z M270.5,166.4c-7.5-6-16.4-6.2-24.2-9.8
		c0.6,1.1,1,1.9,1.5,2.6c2.5,3.3,4.9,6.8,7.6,9.9c2.2,2.5,5.2,3.6,8.3,2.1C266,169.9,268.1,168.1,270.5,166.4z M284.4,179.6
		c0.2-0.8,0.4-1.7,0.5-2.5c0.2-4.6-2.2-8-5.3-10.9c-6.2-5.7-13.8-8.6-21.9-10.7c-3.3-0.8-6.5-1.1-9.9-0.4c1.7,0.9,3.4,1.6,5.2,2.2
		c4.6,1.6,9.4,2.9,13.8,4.9C274.5,165.9,280.8,171.3,284.4,179.6z"/>
</g>
<path class="st2" d="M1351,739h-4c-0.2-0.9-0.3-1.7-0.5-2.5L1351,739z"/>
<path class="st2" d="M1351,739h-4c-0.2-0.9-0.3-1.7-0.5-2.5L1351,739z"/>
</svg>
